<svg viewBox="0 0 700 150" fill="none" xmlns="http://www.w3.org/2000/svg">
<g filter="url(#filter0_d_449_2)">
<path d="M40.189 51.656C49.5757 51.656 57.8103 53.4907 64.893 57.16C72.061 60.8293 77.565 66.0773 81.405 72.904C85.3303 79.6453 87.293 87.496 87.293 96.456C87.293 105.416 85.3303 113.267 81.405 120.008C77.565 126.664 72.061 131.827 64.893 135.496C57.8103 139.165 49.5757 141 40.189 141H8.957V51.656H40.189ZM39.549 125.768C48.9357 125.768 56.189 123.208 61.309 118.088C66.429 112.968 68.989 105.757 68.989 96.456C68.989 87.1547 66.429 79.9013 61.309 74.696C56.189 69.4053 48.9357 66.76 39.549 66.76H26.877V125.768H39.549ZM166.627 104.008C166.627 106.568 166.456 108.872 166.115 110.92H114.275C114.702 116.04 116.494 120.051 119.651 122.952C122.808 125.853 126.691 127.304 131.299 127.304C137.955 127.304 142.691 124.445 145.507 118.728H164.835C162.787 125.555 158.862 131.187 153.059 135.624C147.256 139.976 140.131 142.152 131.683 142.152C124.856 142.152 118.712 140.659 113.251 137.672C107.875 134.6 103.651 130.291 100.579 124.744C97.5923 119.197 96.099 112.797 96.099 105.544C96.099 98.2053 97.5923 91.7627 100.579 86.216C103.566 80.6693 107.747 76.4027 113.123 73.416C118.499 70.4293 124.686 68.936 131.683 68.936C138.424 68.936 144.44 70.3867 149.731 73.288C155.107 76.1893 159.246 80.328 162.147 85.704C165.134 90.9947 166.627 97.096 166.627 104.008ZM148.067 98.888C147.982 94.28 146.318 90.6107 143.075 87.88C139.832 85.064 135.864 83.656 131.171 83.656C126.734 83.656 122.979 85.0213 119.907 87.752C116.92 90.3973 115.086 94.1093 114.403 98.888H148.067ZM209.275 124.488L227.195 70.088H246.267L220.027 141H198.267L172.155 70.088H191.355L209.275 124.488ZM283.468 142.152C277.665 142.152 272.46 141.128 267.852 139.08C263.244 136.947 259.575 134.088 256.844 130.504C254.199 126.92 252.748 122.952 252.492 118.6H270.54C270.881 121.331 272.204 123.592 274.508 125.384C276.897 127.176 279.841 128.072 283.34 128.072C286.753 128.072 289.399 127.389 291.276 126.024C293.239 124.659 294.22 122.909 294.22 120.776C294.22 118.472 293.025 116.765 290.636 115.656C288.332 114.461 284.62 113.181 279.5 111.816C274.209 110.536 269.857 109.213 266.444 107.848C263.116 106.483 260.215 104.392 257.74 101.576C255.351 98.76 254.156 94.9627 254.156 90.184C254.156 86.2587 255.265 82.6747 257.484 79.432C259.788 76.1893 263.031 73.6293 267.212 71.752C271.479 69.8747 276.471 68.936 282.188 68.936C290.636 68.936 297.377 71.0693 302.412 75.336C307.447 79.5173 310.22 85.192 310.732 92.36H293.58C293.324 89.544 292.129 87.3253 289.996 85.704C287.948 83.9973 285.175 83.144 281.676 83.144C278.433 83.144 275.916 83.7413 274.124 84.936C272.417 86.1307 271.564 87.7947 271.564 89.928C271.564 92.3173 272.759 94.152 275.148 95.432C277.537 96.6267 281.249 97.864 286.284 99.144C291.404 100.424 295.628 101.747 298.956 103.112C302.284 104.477 305.143 106.611 307.532 109.512C310.007 112.328 311.287 116.083 311.372 120.776C311.372 124.872 310.22 128.541 307.916 131.784C305.697 135.027 302.455 137.587 298.188 139.464C294.007 141.256 289.1 142.152 283.468 142.152Z" fill="#5ED29E"/>
<path d="M432.998 141H415.078L374.502 79.688V141H356.582V51.528H374.502L415.078 112.968V51.528H432.998V141ZM482.195 142.152C475.368 142.152 469.224 140.659 463.763 137.672C458.302 134.6 453.992 130.291 450.835 124.744C447.763 119.197 446.227 112.797 446.227 105.544C446.227 98.2907 447.806 91.8907 450.963 86.344C454.206 80.7973 458.6 76.5307 464.147 73.544C469.694 70.472 475.88 68.936 482.707 68.936C489.534 68.936 495.72 70.472 501.267 73.544C506.814 76.5307 511.166 80.7973 514.323 86.344C517.566 91.8907 519.187 98.2907 519.187 105.544C519.187 112.797 517.523 119.197 514.195 124.744C510.952 130.291 506.515 134.6 500.883 137.672C495.336 140.659 489.107 142.152 482.195 142.152ZM482.195 126.536C485.438 126.536 488.467 125.768 491.283 124.232C494.184 122.611 496.488 120.221 498.195 117.064C499.902 113.907 500.755 110.067 500.755 105.544C500.755 98.8027 498.963 93.64 495.379 90.056C491.88 86.3867 487.571 84.552 482.451 84.552C477.331 84.552 473.022 86.3867 469.523 90.056C466.11 93.64 464.403 98.8027 464.403 105.544C464.403 112.285 466.067 117.491 469.395 121.16C472.808 124.744 477.075 126.536 482.195 126.536ZM550.252 81.096C552.556 77.3413 555.543 74.3973 559.212 72.264C562.967 70.1307 567.233 69.064 572.012 69.064V87.88H567.276C561.644 87.88 557.377 89.2027 554.476 91.848C551.66 94.4933 550.252 99.1013 550.252 105.672V141H532.332V70.088H550.252V81.096ZM604.946 84.808V119.112C604.946 121.501 605.501 123.251 606.61 124.36C607.805 125.384 609.767 125.896 612.498 125.896H620.818V141H609.554C594.45 141 586.898 133.661 586.898 118.984V84.808H578.45V70.088H586.898V52.552H604.946V70.088H620.818V84.808H604.946ZM699.627 104.008C699.627 106.568 699.456 108.872 699.115 110.92H647.275C647.702 116.04 649.494 120.051 652.651 122.952C655.808 125.853 659.691 127.304 664.299 127.304C670.955 127.304 675.691 124.445 678.507 118.728H697.835C695.787 125.555 691.862 131.187 686.059 135.624C680.256 139.976 673.131 142.152 664.683 142.152C657.856 142.152 651.712 140.659 646.251 137.672C640.875 134.6 636.651 130.291 633.579 124.744C630.592 119.197 629.099 112.797 629.099 105.544C629.099 98.2053 630.592 91.7627 633.579 86.216C636.566 80.6693 640.747 76.4027 646.123 73.416C651.499 70.4293 657.686 68.936 664.683 68.936C671.424 68.936 677.44 70.3867 682.731 73.288C688.107 76.1893 692.246 80.328 695.147 85.704C698.134 90.9947 699.627 97.096 699.627 104.008ZM681.067 98.888C680.982 94.28 679.318 90.6107 676.075 87.88C672.832 85.064 668.864 83.656 664.171 83.656C659.734 83.656 655.979 85.0213 652.907 87.752C649.92 90.3973 648.086 94.1093 647.403 98.888H681.067Z" fill="#1E1E1E"/>
</g>
<defs>
<filter id="filter0_d_449_2" x="4.95703" y="51.528" width="698.67" height="98.624" filterUnits="userSpaceOnUse" color-interpolation-filters="sRGB">
<feFlood flood-opacity="0" result="BackgroundImageFix"/>
<feColorMatrix in="SourceAlpha" type="matrix" values="0 0 0 0 0 0 0 0 0 0 0 0 0 0 0 0 0 0 127 0" result="hardAlpha"/>
<feOffset dy="4"/>
<feGaussianBlur stdDeviation="2"/>
<feComposite in2="hardAlpha" operator="out"/>
<feColorMatrix type="matrix" values="0 0 0 0 0 0 0 0 0 0 0 0 0 0 0 0 0 0 0.25 0"/>
<feBlend mode="normal" in2="BackgroundImageFix" result="effect1_dropShadow_449_2"/>
<feBlend mode="normal" in="SourceGraphic" in2="effect1_dropShadow_449_2" result="shape"/>
</filter>
</defs>
</svg>
