<svg width="700" height="100" viewBox="0 0 700 100" fill="none" xmlns="http://www.w3.org/2000/svg">
<g filter="url(#filter0_d_5_3)">
<path d="M36.189 0.655998C45.5757 0.655998 53.8103 2.49066 60.893 6.16C68.061 9.82933 73.565 15.0773 77.405 21.904C81.3303 28.6453 83.293 36.496 83.293 45.456C83.293 54.416 81.3303 62.2667 77.405 69.008C73.565 75.664 68.061 80.8267 60.893 84.496C53.8103 88.1653 45.5757 90 36.189 90H4.957V0.655998H36.189ZM35.549 74.768C44.9357 74.768 52.189 72.208 57.309 67.088C62.429 61.968 64.989 54.7573 64.989 45.456C64.989 36.1547 62.429 28.9013 57.309 23.696C52.189 18.4053 44.9357 15.76 35.549 15.76H22.877V74.768H35.549ZM162.627 53.008C162.627 55.568 162.456 57.872 162.115 59.92H110.275C110.702 65.04 112.494 69.0507 115.651 71.952C118.808 74.8533 122.691 76.304 127.299 76.304C133.955 76.304 138.691 73.4453 141.507 67.728H160.835C158.787 74.5547 154.862 80.1867 149.059 84.624C143.256 88.976 136.131 91.152 127.683 91.152C120.856 91.152 114.712 89.6587 109.251 86.672C103.875 83.6 99.651 79.2907 96.579 73.744C93.5923 68.1973 92.099 61.7973 92.099 54.544C92.099 47.2053 93.5923 40.7627 96.579 35.216C99.5657 29.6693 103.747 25.4027 109.123 22.416C114.499 19.4293 120.686 17.936 127.683 17.936C134.424 17.936 140.44 19.3867 145.731 22.288C151.107 25.1893 155.246 29.328 158.147 34.704C161.134 39.9947 162.627 46.096 162.627 53.008ZM144.067 47.888C143.982 43.28 142.318 39.6107 139.075 36.88C135.832 34.064 131.864 32.656 127.171 32.656C122.734 32.656 118.979 34.0213 115.907 36.752C112.92 39.3973 111.086 43.1093 110.403 47.888H144.067ZM205.275 73.488L223.195 19.088H242.267L216.027 90H194.267L168.155 19.088H187.355L205.275 73.488ZM279.468 91.152C273.665 91.152 268.46 90.128 263.852 88.08C259.244 85.9467 255.575 83.088 252.844 79.504C250.199 75.92 248.748 71.952 248.492 67.6H266.54C266.881 70.3307 268.204 72.592 270.508 74.384C272.897 76.176 275.841 77.072 279.34 77.072C282.753 77.072 285.399 76.3893 287.276 75.024C289.239 73.6587 290.22 71.9093 290.22 69.776C290.22 67.472 289.025 65.7653 286.636 64.656C284.332 63.4613 280.62 62.1813 275.5 60.816C270.209 59.536 265.857 58.2133 262.444 56.848C259.116 55.4827 256.215 53.392 253.74 50.576C251.351 47.76 250.156 43.9627 250.156 39.184C250.156 35.2587 251.265 31.6747 253.484 28.432C255.788 25.1893 259.031 22.6293 263.212 20.752C267.479 18.8747 272.471 17.936 278.188 17.936C286.636 17.936 293.377 20.0693 298.412 24.336C303.447 28.5173 306.22 34.192 306.732 41.36H289.58C289.324 38.544 288.129 36.3253 285.996 34.704C283.948 32.9973 281.175 32.144 277.676 32.144C274.433 32.144 271.916 32.7413 270.124 33.936C268.417 35.1307 267.564 36.7947 267.564 38.928C267.564 41.3173 268.759 43.152 271.148 44.432C273.537 45.6267 277.249 46.864 282.284 48.144C287.404 49.424 291.628 50.7467 294.956 52.112C298.284 53.4773 301.143 55.6107 303.532 58.512C306.007 61.328 307.287 65.0827 307.372 69.776C307.372 73.872 306.22 77.5413 303.916 80.784C301.697 84.0267 298.455 86.5867 294.188 88.464C290.007 90.256 285.1 91.152 279.468 91.152Z" fill="#5ED29E"/>
<path d="M428.998 90H411.078L370.502 28.688V90H352.582V0.527992H370.502L411.078 61.968V0.527992H428.998V90ZM478.195 91.152C471.368 91.152 465.224 89.6587 459.763 86.672C454.302 83.6 449.992 79.2907 446.835 73.744C443.763 68.1973 442.227 61.7973 442.227 54.544C442.227 47.2907 443.806 40.8907 446.963 35.344C450.206 29.7973 454.6 25.5307 460.147 22.544C465.694 19.472 471.88 17.936 478.707 17.936C485.534 17.936 491.72 19.472 497.267 22.544C502.814 25.5307 507.166 29.7973 510.323 35.344C513.566 40.8907 515.187 47.2907 515.187 54.544C515.187 61.7973 513.523 68.1973 510.195 73.744C506.952 79.2907 502.515 83.6 496.883 86.672C491.336 89.6587 485.107 91.152 478.195 91.152ZM478.195 75.536C481.438 75.536 484.467 74.768 487.283 73.232C490.184 71.6107 492.488 69.2213 494.195 66.064C495.902 62.9067 496.755 59.0667 496.755 54.544C496.755 47.8027 494.963 42.64 491.379 39.056C487.88 35.3867 483.571 33.552 478.451 33.552C473.331 33.552 469.022 35.3867 465.523 39.056C462.11 42.64 460.403 47.8027 460.403 54.544C460.403 61.2853 462.067 66.4907 465.395 70.16C468.808 73.744 473.075 75.536 478.195 75.536ZM546.252 30.096C548.556 26.3413 551.543 23.3973 555.212 21.264C558.967 19.1307 563.233 18.064 568.012 18.064V36.88H563.276C557.644 36.88 553.377 38.2027 550.476 40.848C547.66 43.4933 546.252 48.1013 546.252 54.672V90H528.332V19.088H546.252V30.096ZM600.946 33.808V68.112C600.946 70.5013 601.501 72.2507 602.61 73.36C603.805 74.384 605.767 74.896 608.498 74.896H616.818V90H605.554C590.45 90 582.898 82.6613 582.898 67.984V33.808H574.45V19.088H582.898V1.55199H600.946V19.088H616.818V33.808H600.946ZM695.627 53.008C695.627 55.568 695.456 57.872 695.115 59.92H643.275C643.702 65.04 645.494 69.0507 648.651 71.952C651.808 74.8533 655.691 76.304 660.299 76.304C666.955 76.304 671.691 73.4453 674.507 67.728H693.835C691.787 74.5547 687.862 80.1867 682.059 84.624C676.256 88.976 669.131 91.152 660.683 91.152C653.856 91.152 647.712 89.6587 642.251 86.672C636.875 83.6 632.651 79.2907 629.579 73.744C626.592 68.1973 625.099 61.7973 625.099 54.544C625.099 47.2053 626.592 40.7627 629.579 35.216C632.566 29.6693 636.747 25.4027 642.123 22.416C647.499 19.4293 653.686 17.936 660.683 17.936C667.424 17.936 673.44 19.3867 678.731 22.288C684.107 25.1893 688.246 29.328 691.147 34.704C694.134 39.9947 695.627 46.096 695.627 53.008ZM677.067 47.888C676.982 43.28 675.318 39.6107 672.075 36.88C668.832 34.064 664.864 32.656 660.171 32.656C655.734 32.656 651.979 34.0213 648.907 36.752C645.92 39.3973 644.086 43.1093 643.403 47.888H677.067Z" fill="#EEEEEE"/>
</g>
<defs>
<filter id="filter0_d_5_3" x="0.957031" y="0.527992" width="698.67" height="98.624" filterUnits="userSpaceOnUse" color-interpolation-filters="sRGB">
<feFlood flood-opacity="0" result="BackgroundImageFix"/>
<feColorMatrix in="SourceAlpha" type="matrix" values="0 0 0 0 0 0 0 0 0 0 0 0 0 0 0 0 0 0 127 0" result="hardAlpha"/>
<feOffset dy="4"/>
<feGaussianBlur stdDeviation="2"/>
<feComposite in2="hardAlpha" operator="out"/>
<feColorMatrix type="matrix" values="0 0 0 0 0 0 0 0 0 0 0 0 0 0 0 0 0 0 0.25 0"/>
<feBlend mode="normal" in2="BackgroundImageFix" result="effect1_dropShadow_5_3"/>
<feBlend mode="normal" in="SourceGraphic" in2="effect1_dropShadow_5_3" result="shape"/>
</filter>
</defs>
</svg>
