<svg width="80" height="80" viewBox="0 0 80 80" fill="none" xmlns="http://www.w3.org/2000/svg">
<rect width="79.6427" height="79.6427" rx="39.8213" fill="#111111"/>
<path d="M31.1661 25.4759C30.9439 23.5513 33.3144 22.4667 34.6254 23.8932L40.5389 30.3272C41.1252 30.9652 42.0556 31.153 42.8435 30.7925L50.79 27.1568C52.5518 26.3507 54.3158 28.27 53.3643 29.9577L49.0725 37.5699C48.647 38.3247 48.7558 39.2676 49.3422 39.9056L55.2556 46.3396C56.5666 47.7661 55.2864 50.0369 53.3873 49.6534L44.8213 47.924C43.972 47.7525 43.1089 48.1474 42.6834 48.9022L38.3916 56.5144C37.44 58.2021 34.8848 57.6862 34.6626 55.7616L33.6603 47.0805C33.561 46.2198 32.9187 45.5209 32.0693 45.3494L23.5034 43.62C21.6043 43.2366 21.3053 40.6469 23.0671 39.8409L31.0136 36.2051C31.8015 35.8446 32.2677 35.0178 32.1683 34.157L31.1661 25.4759Z" fill="url(#paint0_linear_2385_4)"/>
<defs>
<linearGradient id="paint0_linear_2385_4" x1="25.5" y1="34.5" x2="52.5" y2="64.5" gradientUnits="userSpaceOnUse">
<stop stop-color="#5ED29E"/>
<stop offset="1" stop-color="#222222"/>
</linearGradient>
</defs>
</svg>
