<svg width="188" height="60" viewBox="0 0 188 60" fill="none" xmlns="http://www.w3.org/2000/svg">
<g clip-path="url(#clip0_450_6)">
<path d="M27.1389 53.7374C28.1835 54.5654 29.7081 54.3977 30.5439 53.363L34.2671 48.7541C35.1032 47.719 34.9338 46.2084 33.8889 45.3804L16.4143 31.5324C15.2019 30.5717 15.2019 28.745 16.4143 27.7841L33.8889 13.9362C34.9338 13.1081 35.1032 11.5975 34.2671 10.5625L30.5439 5.95356C29.7081 4.91878 28.1835 4.75111 27.1389 5.57904L2.02773 25.4798C1.39504 25.9812 0.884269 26.617 0.533261 27.3403C0.182254 28.0634 0 28.8557 0 29.6582C0 30.4608 0.182254 31.253 0.533261 31.9764C0.884269 32.6995 1.39504 33.3355 2.02773 33.8366L27.1389 53.7374Z" fill="#41B883"/>
<path d="M160.711 54.696C159.666 55.5228 158.143 55.3553 157.308 54.3216L153.586 49.7191C152.749 48.6838 152.918 47.172 153.964 46.344L171.433 32.5133C172.647 31.5526 172.647 29.7245 171.433 28.7638L153.964 14.9331C152.918 14.105 152.749 12.5932 153.586 11.5579L157.308 6.95545C158.143 5.92172 159.666 5.75418 160.711 6.5811L185.823 26.4641C186.456 26.9647 186.967 27.6 187.318 28.3227C187.669 29.0453 187.851 29.8368 187.851 30.6384C187.851 31.4403 187.669 32.2318 187.318 32.9544C186.967 33.677 186.456 34.3121 185.823 34.813L160.711 54.696Z" fill="#41B883"/>
<path d="M149.899 1.12731L148.745 0.772812C147.466 0.380416 146.109 1.08867 145.713 2.35474L129.002 55.7682C128.606 57.0342 129.321 58.3787 130.599 58.7711L131.754 59.1256C133.032 59.518 134.389 58.8097 134.785 57.5436L151.496 4.13023C151.892 2.86416 151.177 1.51971 149.899 1.12731Z" fill="#41B883"/>
<path d="M54.4055 26.8947C54.0832 26.8947 53.8119 26.7855 53.5914 26.5671C53.371 26.3487 53.2607 26.0799 53.2607 25.7607V10.4643C53.2607 10.1451 53.371 9.87628 53.5914 9.65788C53.8119 9.42268 54.0832 9.30508 54.4055 9.30508H59.5185C61.4518 9.30508 63.0883 9.73348 64.4281 10.5903C65.7848 11.4303 66.8023 12.5223 67.4807 13.8663C68.159 15.2103 68.4982 16.6215 68.4982 18.0999C68.4982 19.5783 68.159 20.9895 67.4807 22.3335C66.8023 23.6775 65.7848 24.7779 64.4281 25.6347C63.0883 26.4747 61.4518 26.8947 59.5185 26.8947H54.4055ZM59.2387 24.7527C60.6293 24.7527 61.8504 24.4755 62.9018 23.9211C63.9532 23.3499 64.7673 22.5687 65.3439 21.5775C65.9205 20.5695 66.2088 19.4103 66.2088 18.0999C66.2088 16.7895 65.9205 15.6387 65.3439 14.6475C64.7673 13.6395 63.9532 12.8583 62.9018 12.3039C61.8504 11.7327 60.6293 11.4471 59.2387 11.4471H55.5756V24.7527H59.2387ZM74.7809 26.8947C74.4587 26.8947 74.1874 26.7855 73.9669 26.5671C73.7464 26.3487 73.6362 26.0799 73.6362 25.7607V10.4643C73.6362 10.1451 73.7464 9.87628 73.9669 9.65788C74.1874 9.42268 74.4587 9.30508 74.7809 9.30508H84.9816C85.2869 9.30508 85.5413 9.41428 85.7448 9.63268C85.9652 9.83428 86.0755 10.0863 86.0755 10.3887C86.0755 10.6911 85.9652 10.9431 85.7448 11.1447C85.5413 11.3463 85.2869 11.4471 84.9816 11.4471H75.9511V17.0163H84.0658C84.3711 17.0163 84.6255 17.1255 84.829 17.3439C85.0495 17.5455 85.1597 17.7975 85.1597 18.0999C85.1597 18.4023 85.0495 18.6543 84.829 18.8559C84.6255 19.0575 84.3711 19.1583 84.0658 19.1583H75.9511V24.7527H84.9816C85.2869 24.7527 85.5413 24.8619 85.7448 25.0803C85.9652 25.2819 86.0755 25.5339 86.0755 25.8363C86.0755 26.1387 85.9652 26.3907 85.7448 26.5923C85.5413 26.7939 85.2869 26.8947 84.9816 26.8947H74.7809ZM97.2096 27.0207C96.5143 27.0207 95.9886 26.6343 95.6325 25.8615L89.3492 10.7667C89.2984 10.6323 89.2729 10.4895 89.2729 10.3383C89.2729 9.98548 89.3747 9.70828 89.5782 9.50668C89.7817 9.28828 90.0615 9.17908 90.4176 9.17908C90.6551 9.17908 90.867 9.25468 91.0536 9.40588C91.2571 9.54028 91.4097 9.72508 91.5115 9.96028L97.4894 24.7275L103.467 9.96028C103.569 9.72508 103.713 9.54028 103.9 9.40588C104.103 9.25468 104.324 9.17908 104.561 9.17908C104.917 9.17908 105.197 9.28828 105.401 9.50668C105.604 9.70828 105.706 9.98548 105.706 10.3383C105.706 10.4895 105.681 10.6323 105.63 10.7667L99.3464 25.8615C98.9903 26.6343 98.4646 27.0207 97.7693 27.0207H97.2096ZM112.537 27.1467C110.841 27.1467 109.298 26.7687 107.907 26.0127C107.619 25.8111 107.475 25.5339 107.475 25.1811C107.475 24.9123 107.568 24.6771 107.755 24.4755C107.941 24.2739 108.179 24.1731 108.467 24.1731C108.619 24.1731 108.772 24.2067 108.925 24.2739C109.467 24.5091 110.01 24.6939 110.553 24.8283C111.095 24.9627 111.706 25.0299 112.384 25.0299C114.267 25.0299 115.208 24.4335 115.208 23.2407C115.208 22.8543 114.987 22.5603 114.547 22.3587C114.123 22.1571 113.419 21.9303 112.435 21.6783C111.435 21.4431 110.604 21.1995 109.942 20.9475C109.298 20.6955 108.738 20.3175 108.263 19.8135C107.805 19.2927 107.577 18.6123 107.577 17.7723C107.577 16.5963 108 15.6387 108.848 14.8995C109.713 14.1603 110.943 13.7907 112.537 13.7907C113.843 13.7907 115.072 14.0007 116.225 14.4207C116.463 14.4879 116.641 14.6139 116.76 14.7987C116.895 14.9835 116.963 15.1767 116.963 15.3783C116.963 15.6471 116.861 15.8823 116.658 16.0839C116.471 16.2855 116.234 16.3863 115.946 16.3863C115.861 16.3863 115.751 16.3695 115.615 16.3359C114.631 16.0335 113.665 15.8823 112.715 15.8823C111.799 15.8823 111.078 16.0503 110.553 16.3863C110.044 16.7055 109.79 17.1255 109.79 17.6463C109.79 18.1503 110.027 18.5199 110.502 18.7551C110.977 18.9903 111.714 19.2171 112.715 19.4355C113.716 19.6875 114.53 19.9395 115.157 20.1915C115.785 20.4267 116.319 20.8047 116.76 21.3255C117.218 21.8463 117.447 22.5435 117.447 23.4171C117.447 24.4923 117.014 25.3827 116.149 26.0883C115.301 26.7939 114.097 27.1467 112.537 27.1467Z" fill="black"/>
<path d="M53.5914 26.567L54.1055 26.058L53.5914 26.567ZM53.5914 9.65785L54.1055 10.167L54.115 10.1575L54.1242 10.1478L53.5914 9.65785ZM64.4281 10.5902L64.0339 11.1951L64.0385 11.198L64.0429 11.2008L64.4281 10.5902ZM67.4807 13.8662L66.8307 14.1882L67.4807 13.8662ZM67.4807 22.3334L66.8307 22.0115L67.4807 22.3334ZM64.4281 25.6346L64.8169 26.243L64.8189 26.2418L64.4281 25.6346ZM62.9018 23.921L63.2434 24.5565L63.2473 24.5544L63.2514 24.5522L62.9018 23.921ZM65.3439 21.5774L65.9735 21.9369L65.975 21.9347L65.9762 21.9324L65.3439 21.5774ZM65.3439 14.6474L64.7115 15.0024L64.7128 15.0047L64.7142 15.0069L65.3439 14.6474ZM62.9018 12.3038L62.5524 12.9351L62.5563 12.9373L62.5604 12.9394L62.9018 12.3038ZM55.5756 11.447V10.727H54.8488V11.447H55.5756ZM55.5756 24.7526H54.8488V25.4726H55.5756V24.7526ZM54.4055 26.1746C54.2688 26.1746 54.1845 26.1362 54.1055 26.058L53.0776 27.0761C53.4393 27.4346 53.8977 27.6146 54.4055 27.6146V26.1746ZM54.1055 26.058C54.0263 25.9795 53.9875 25.896 53.9875 25.7606H52.5339C52.5339 26.2637 52.7159 26.7177 53.0776 27.0761L54.1055 26.058ZM53.9875 25.7606V10.4642H52.5339V25.7606H53.9875ZM53.9875 10.4642C53.9875 10.3289 54.0263 10.2454 54.1055 10.167L53.0776 9.14873C52.7159 9.50713 52.5339 9.96123 52.5339 10.4642H53.9875ZM54.1242 10.1478C54.208 10.0584 54.2867 10.025 54.4055 10.025V8.58504C53.88 8.58504 53.416 8.78693 53.0589 9.16791L54.1242 10.1478ZM54.4055 10.025H59.5185V8.58504H54.4055V10.025ZM59.5185 10.025C61.3421 10.025 62.8344 10.4281 64.0339 11.1951L64.8223 9.98535C63.3422 9.03879 61.5618 8.58504 59.5185 8.58504V10.025ZM64.0429 11.2008C65.2927 11.9746 66.2155 12.9693 66.8307 14.1882L68.1307 13.5443C67.3893 12.0751 66.2771 10.8859 64.8133 9.97968L64.0429 11.2008ZM66.8307 14.1882C67.4593 15.434 67.7714 16.7351 67.7714 18.0998H69.225C69.225 16.5078 68.8587 14.9865 68.1307 13.5443L66.8307 14.1882ZM67.7714 18.0998C67.7714 19.4646 67.4593 20.7657 66.8307 22.0115L68.1307 22.6554C68.8587 21.2132 69.225 19.6919 69.225 18.0998H67.7714ZM66.8307 22.0115C66.2148 23.2318 65.2903 24.2364 64.0376 25.0274L64.8189 26.2418C66.2795 25.3193 67.3901 24.1231 68.1307 22.6554L66.8307 22.0115ZM64.0395 25.0262C62.8393 25.7789 61.3445 26.1746 59.5185 26.1746V27.6146C61.5591 27.6146 63.3376 27.1704 64.8169 26.243L64.0395 25.0262ZM59.5185 26.1746H54.4055V27.6146H59.5185V26.1746ZM59.2387 25.4726C60.7284 25.4726 62.0703 25.175 63.2434 24.5565L62.5604 23.2855C61.6304 23.7758 60.5302 24.0326 59.2387 24.0326V25.4726ZM63.2514 24.5522C64.4148 23.9203 65.3279 23.047 65.9735 21.9369L64.7142 21.2179C64.2067 22.0903 63.4917 22.7794 62.5524 23.2897L63.2514 24.5522ZM65.9762 21.9324C66.6225 20.8026 66.9356 19.5181 66.9356 18.0998H65.4819C65.4819 19.3024 65.2184 20.3363 64.7115 21.2225L65.9762 21.9324ZM66.9356 18.0998C66.9356 16.6819 66.6226 15.4036 65.9735 14.2879L64.7142 15.0069C65.2184 15.8737 65.4819 16.897 65.4819 18.0998H66.9356ZM65.9762 14.2925C65.3303 13.1632 64.4143 12.2857 63.2434 11.6683L62.5604 12.9394C63.4922 13.4308 64.2045 14.1157 64.7115 15.0024L65.9762 14.2925ZM63.2514 11.6725C62.0769 11.0345 60.7318 10.727 59.2387 10.727V12.167C60.5268 12.167 61.6241 12.4308 62.5524 12.9351L63.2514 11.6725ZM59.2387 10.727H55.5756V12.167H59.2387V10.727ZM54.8488 11.447V24.7526H56.3024V11.447H54.8488ZM55.5756 25.4726H59.2387V24.0326H55.5756V25.4726ZM73.9669 26.567L74.4808 26.058L73.9669 26.567ZM73.9669 9.65785L74.4808 10.167L74.4902 10.1575L74.4994 10.1478L73.9669 9.65785ZM85.7448 9.63265L85.2106 10.121L85.2304 10.1422L85.2518 10.1617L85.7448 9.63265ZM85.7448 11.1446L85.2518 10.6156L85.2411 10.6254L85.2307 10.6355L85.7448 11.1446ZM75.9511 11.447V10.727H75.2243V11.447H75.9511ZM75.9511 17.0162H75.2243V17.7362H75.9511V17.0162ZM84.829 17.3438L84.2948 17.8322L84.3147 17.8534L84.336 17.8729L84.829 17.3438ZM84.829 18.8558L84.336 18.3268L84.3253 18.3366L84.3149 18.3467L84.829 18.8558ZM75.9511 19.1582V18.4382H75.2243V19.1582H75.9511ZM75.9511 24.7526H75.2243V25.4726H75.9511V24.7526ZM85.7448 25.0802L85.2106 25.5686L85.2304 25.5897L85.2518 25.6092L85.7448 25.0802ZM85.7448 26.5922L85.2518 26.0633L85.2411 26.0729L85.2307 26.0832L85.7448 26.5922ZM74.7809 26.1746C74.6443 26.1746 74.56 26.1362 74.4808 26.058L73.4528 27.0761C73.8148 27.4346 74.2731 27.6146 74.7809 27.6146V26.1746ZM74.4808 26.058C74.4015 25.9795 74.363 25.896 74.363 25.7606H72.9094C72.9094 26.2637 73.0911 26.7177 73.4528 27.0761L74.4808 26.058ZM74.363 25.7606V10.4642H72.9094V25.7606H74.363ZM74.363 10.4642C74.363 10.3289 74.4015 10.2454 74.4808 10.167L73.4528 9.14873C73.0911 9.50713 72.9094 9.96123 72.9094 10.4642H74.363ZM74.4994 10.1478C74.5832 10.0584 74.662 10.025 74.7809 10.025V8.58504C74.2552 8.58504 73.7913 8.78693 73.4342 9.16791L74.4994 10.1478ZM74.7809 10.025H84.9816V8.58504H74.7809V10.025ZM84.9816 10.025C85.088 10.025 85.1473 10.0532 85.2106 10.121L86.2787 9.14427C85.9349 8.77532 85.4855 8.58504 84.9816 8.58504V10.025ZM85.2518 10.1617C85.3203 10.2243 85.3487 10.2832 85.3487 10.3886H86.8023C86.8023 9.88928 86.6101 9.44415 86.2378 9.10359L85.2518 10.1617ZM85.3487 10.3886C85.3487 10.4941 85.3203 10.553 85.2518 10.6156L86.2378 11.6737C86.6101 11.3331 86.8023 10.888 86.8023 10.3886H85.3487ZM85.2307 10.6355C85.1725 10.6933 85.1071 10.727 84.9816 10.727V12.167C85.4666 12.167 85.91 11.9992 86.2586 11.6538L85.2307 10.6355ZM84.9816 10.727H75.9511V12.167H84.9816V10.727ZM75.2243 11.447V17.0162H76.6779V11.447H75.2243ZM75.9511 17.7362H84.0658V16.2962H75.9511V17.7362ZM84.0658 17.7362C84.1722 17.7362 84.2316 17.7644 84.2948 17.8322L85.363 16.8555C85.0192 16.4865 84.5698 16.2962 84.0658 16.2962V17.7362ZM84.336 17.8729C84.4045 17.9355 84.4329 17.9944 84.4329 18.0998H85.8865C85.8865 17.6005 85.6944 17.1554 85.322 16.8148L84.336 17.8729ZM84.4329 18.0998C84.4329 18.2053 84.4045 18.2642 84.336 18.3268L85.322 19.3849C85.6944 19.0443 85.8865 18.5992 85.8865 18.0998H84.4329ZM84.3149 18.3467C84.2568 18.4045 84.1913 18.4382 84.0658 18.4382V19.8782C84.5509 19.8782 84.9942 19.7104 85.3428 19.365L84.3149 18.3467ZM84.0658 18.4382H75.9511V19.8782H84.0658V18.4382ZM75.2243 19.1582V24.7526H76.6779V19.1582H75.2243ZM75.9511 25.4726H84.9816V24.0326H75.9511V25.4726ZM84.9816 25.4726C85.088 25.4726 85.1473 25.5007 85.2106 25.5686L86.2787 24.5918C85.9349 24.2229 85.4855 24.0326 84.9816 24.0326V25.4726ZM85.2518 25.6092C85.3203 25.6718 85.3487 25.7309 85.3487 25.8362H86.8023C86.8023 25.3368 86.6101 24.8918 86.2378 24.5513L85.2518 25.6092ZM85.3487 25.8362C85.3487 25.9416 85.3203 26.0006 85.2518 26.0633L86.2378 27.1212C86.6101 26.7806 86.8023 26.3357 86.8023 25.8362H85.3487ZM85.2307 26.0832C85.1725 26.1408 85.1071 26.1746 84.9816 26.1746V27.6146C85.4666 27.6146 85.91 27.4469 86.2586 27.1013L85.2307 26.0832ZM84.9816 26.1746H74.7809V27.6146H84.9816V26.1746ZM95.6325 25.8614L94.9604 26.136L94.9657 26.1482L94.9713 26.1605L95.6325 25.8614ZM89.3492 10.7666L88.6687 11.0195L88.6728 11.0304L88.6772 11.0411L89.3492 10.7666ZM89.5782 9.50664L90.092 10.0158L90.1024 10.0056L90.1121 9.995L89.5782 9.50664ZM91.0536 9.40585L90.5933 9.9631L90.6209 9.9854L90.6505 10.0049L91.0536 9.40585ZM91.5115 9.96024L92.1859 9.69226L92.1828 9.68439L92.1794 9.67661L91.5115 9.96024ZM97.4894 24.7274L96.8147 24.9955L97.4894 26.6618L98.1639 24.9955L97.4894 24.7274ZM103.467 9.96024L102.799 9.67661L102.796 9.68439L102.793 9.69226L103.467 9.96024ZM103.9 9.40585L104.327 9.98813L104.332 9.98501L104.336 9.98184L103.9 9.40585ZM105.401 9.50664L104.867 9.995L104.876 10.0056L104.887 10.0158L105.401 9.50664ZM105.63 10.7666L106.301 11.0411L106.306 11.0304L106.31 11.0195L105.63 10.7666ZM99.3464 25.8614L100.008 26.1605L100.013 26.1482L100.018 26.136L99.3464 25.8614ZM97.2096 26.3006C97.0076 26.3006 96.8564 26.2478 96.7268 26.1525C96.5884 26.051 96.4361 25.8715 96.2936 25.5624L94.9713 26.1605C95.185 26.6244 95.4733 27.0242 95.8607 27.3091C96.2568 27.6002 96.7164 27.7406 97.2096 27.7406V26.3006ZM96.3043 25.5869L90.021 10.4922L88.6772 11.0411L94.9604 26.136L96.3043 25.5869ZM90.0298 10.5138C90.0111 10.4645 89.9997 10.4078 89.9997 10.3382H88.5461C88.5461 10.5711 88.5856 10.8 88.6687 11.0195L90.0298 10.5138ZM89.9997 10.3382C89.9997 10.1283 90.0557 10.0518 90.092 10.0158L89.0641 8.99753C88.6937 9.36471 88.5461 9.84255 88.5461 10.3382H89.9997ZM90.1121 9.995C90.1524 9.95185 90.2231 9.89905 90.4176 9.89905V8.45905C89.8999 8.45905 89.4108 8.62464 89.044 9.01827L90.1121 9.995ZM90.4176 9.89905C90.4845 9.89905 90.5344 9.91539 90.5933 9.9631L91.5137 8.84859C91.1994 8.5939 90.8256 8.45905 90.4176 8.45905V9.89905ZM90.6505 10.0049C90.7299 10.0574 90.7939 10.1295 90.8433 10.2439L92.1794 9.67661C92.0253 9.32062 91.7843 9.02309 91.4567 8.80676L90.6505 10.0049ZM90.8368 10.2282L96.8147 24.9955L98.1639 24.4593L92.1859 9.69226L90.8368 10.2282ZM98.1639 24.9955L104.142 10.2282L102.793 9.69226L96.8147 24.4593L98.1639 24.9955ZM104.135 10.2439C104.192 10.1132 104.259 10.0374 104.327 9.98813L103.472 8.82356C103.168 9.04309 102.946 9.33687 102.799 9.67661L104.135 10.2439ZM104.336 9.98184C104.423 9.91702 104.493 9.89905 104.561 9.89905V8.45905C104.155 8.45905 103.784 8.59227 103.464 8.82984L104.336 9.98184ZM104.561 9.89905C104.756 9.89905 104.826 9.95185 104.867 9.995L105.935 9.01827C105.568 8.62464 105.079 8.45905 104.561 8.45905V9.89905ZM104.887 10.0158C104.923 10.0518 104.979 10.1283 104.979 10.3382H106.433C106.433 9.84255 106.285 9.36471 105.915 8.99753L104.887 10.0158ZM104.979 10.3382C104.979 10.4078 104.968 10.4645 104.949 10.5138L106.31 11.0195C106.393 10.8 106.433 10.5711 106.433 10.3382H104.979ZM104.958 10.4922L98.6744 25.5869L100.018 26.136L106.301 11.0411L104.958 10.4922ZM98.6853 25.5624C98.5428 25.8715 98.3902 26.051 98.2519 26.1525C98.1222 26.2478 97.9713 26.3006 97.7693 26.3006V27.7406C98.2625 27.7406 98.7219 27.6002 99.118 27.3091C99.5054 27.0242 99.7939 26.6244 100.008 26.1605L98.6853 25.5624ZM97.7693 26.3006H97.2096V27.7406H97.7693V26.3006ZM107.907 26.0126L107.488 26.6009L107.522 26.6244L107.557 26.6438L107.907 26.0126ZM107.755 24.4754L108.29 24.9619L107.755 24.4754ZM108.925 24.2738L108.629 24.9317L108.631 24.9326L108.633 24.9336L108.925 24.2738ZM114.547 22.3586L114.232 23.0077L114.237 23.0101L114.242 23.0124L114.547 22.3586ZM112.435 21.6782L112.617 20.9812L112.61 20.9794L112.603 20.9777L112.435 21.6782ZM109.942 20.9474L109.675 21.6172L109.678 21.6183L109.681 21.6194L109.942 20.9474ZM108.263 19.8134L107.715 20.2863L107.723 20.2957L107.732 20.3047L108.263 19.8134ZM108.848 14.8994L108.374 14.3543L108.371 14.3566L108.368 14.3589L108.848 14.8994ZM116.225 14.4206L115.974 15.0964L116 15.1056L116.026 15.1129L116.225 14.4206ZM116.76 14.7986L116.146 15.1852L116.159 15.2041L116.172 15.2221L116.76 14.7986ZM116.658 16.0838L116.144 15.5747L116.133 15.5858L116.122 15.5973L116.658 16.0838ZM115.615 16.3358L115.399 17.0235L115.419 17.0295L115.439 17.0343L115.615 16.3358ZM110.553 16.3862L110.942 16.9945L110.944 16.9929L110.947 16.9913L110.553 16.3862ZM112.715 19.4354L112.894 18.7376L112.883 18.7348L112.871 18.7323L112.715 19.4354ZM115.157 20.1914L114.884 20.8587L114.892 20.8619L114.9 20.8649L115.157 20.1914ZM116.76 21.3254L116.203 21.7881L116.207 21.7933L116.211 21.7983L116.76 21.3254ZM116.149 26.0882L115.687 25.5324L115.684 25.5348L115.682 25.5369L116.149 26.0882ZM112.537 26.4266C110.954 26.4266 109.533 26.0753 108.257 25.3814L107.557 26.6438C109.063 27.4622 110.727 27.8666 112.537 27.8666V26.4266ZM108.326 25.4244C108.233 25.3591 108.202 25.3025 108.202 25.181H106.748C106.748 25.7652 107.005 26.2629 107.488 26.6009L108.326 25.4244ZM108.202 25.181C108.202 25.0958 108.224 25.0334 108.29 24.9619L107.219 23.9889C106.912 24.3206 106.748 24.7286 106.748 25.181H108.202ZM108.29 24.9619C108.332 24.9163 108.372 24.893 108.467 24.893V23.453C107.985 23.453 107.55 23.6313 107.219 23.9889L108.29 24.9619ZM108.467 24.893C108.509 24.893 108.561 24.9017 108.629 24.9317L109.22 23.6159C108.983 23.5117 108.73 23.453 108.467 23.453V24.893ZM108.633 24.9336C109.211 25.1839 109.792 25.3821 110.376 25.5266L110.729 24.1298C110.228 24.0057 109.723 23.8342 109.216 23.6142L108.633 24.9336ZM110.376 25.5266C110.987 25.6781 111.658 25.7498 112.384 25.7498V24.3098C111.753 24.3098 111.203 24.2472 110.729 24.1298L110.376 25.5266ZM112.384 25.7498C113.38 25.7498 114.251 25.5965 114.893 25.1892C115.592 24.7466 115.935 24.0597 115.935 23.2406H114.481C114.481 23.6143 114.353 23.822 114.11 23.976C113.812 24.1651 113.271 24.3098 112.384 24.3098V25.7498ZM115.935 23.2406C115.935 22.9019 115.835 22.5792 115.626 22.301C115.424 22.0316 115.148 21.8409 114.851 21.7049L114.242 23.0124C114.385 23.078 114.441 23.135 114.459 23.1597C114.471 23.1755 114.481 23.193 114.481 23.2406H115.935ZM114.861 21.7095C114.369 21.4755 113.606 21.2347 112.617 20.9812L112.253 22.3753C113.231 22.6258 113.876 22.8385 114.232 23.0077L114.861 21.7095ZM112.603 20.9777C111.621 20.7469 110.824 20.512 110.203 20.2754L109.681 21.6194C110.383 21.8869 111.248 22.1392 112.267 22.3788L112.603 20.9777ZM110.209 20.2777C109.666 20.0652 109.196 19.7483 108.795 19.3222L107.732 20.3047C108.28 20.8866 108.93 21.3257 109.675 21.6172L110.209 20.2777ZM108.811 19.3406C108.492 18.9777 108.303 18.4777 108.303 17.7722H106.85C106.85 18.7468 107.118 19.6076 107.715 20.2863L108.811 19.3406ZM108.303 17.7722C108.303 16.7912 108.646 16.0347 109.328 15.4399L108.368 14.3589C107.355 15.2425 106.85 16.4013 106.85 17.7722H108.303ZM109.323 15.4446C110.012 14.8558 111.048 14.5106 112.537 14.5106V13.0706C110.837 13.0706 109.414 13.4647 108.374 14.3543L109.323 15.4446ZM112.537 14.5106C113.763 14.5106 114.907 14.7075 115.974 15.0964L116.476 13.7449C115.238 13.2938 113.923 13.0706 112.537 13.0706V14.5106ZM116.026 15.1129C116.114 15.1378 116.134 15.1666 116.146 15.1852L117.373 14.4121C117.147 14.0611 116.812 13.8379 116.425 13.7283L116.026 15.1129ZM116.172 15.2221C116.23 15.301 116.236 15.3487 116.236 15.3782H117.69C117.69 15.0046 117.561 14.6659 117.347 14.3752L116.172 15.2221ZM116.236 15.3782C116.236 15.4436 116.22 15.4991 116.144 15.5747L117.172 16.593C117.502 16.2654 117.69 15.8505 117.69 15.3782H116.236ZM116.122 15.5973C116.08 15.6429 116.04 15.6662 115.946 15.6662V17.1062C116.427 17.1062 116.863 16.928 117.194 16.5704L116.122 15.5973ZM115.946 15.6662C115.95 15.6662 115.939 15.6665 115.91 15.662C115.881 15.6577 115.842 15.65 115.791 15.6373L115.439 17.0343C115.6 17.0743 115.776 17.1062 115.946 17.1062V15.6662ZM115.83 15.6482C114.783 15.3262 113.743 15.1622 112.715 15.1622V16.6022C113.586 16.6022 114.48 16.7407 115.399 17.0235L115.83 15.6482ZM112.715 15.1622C111.721 15.1622 110.844 15.343 110.159 15.7812L110.947 16.9913C111.312 16.7575 111.878 16.6022 112.715 16.6022V15.1622ZM110.164 15.778C109.481 16.2066 109.063 16.8392 109.063 17.6462H110.516C110.516 17.4116 110.607 17.2043 110.942 16.9945L110.164 15.778ZM109.063 17.6462C109.063 18.0141 109.151 18.3711 109.355 18.688C109.557 19.0031 109.845 19.2348 110.177 19.399L110.827 18.1111C110.684 18.0401 110.616 17.9694 110.581 17.9149C110.547 17.8622 110.516 17.7824 110.516 17.6462H109.063ZM110.177 19.399C110.734 19.6751 111.543 19.9169 112.559 20.1386L112.871 18.7323C111.886 18.5172 111.219 18.3054 110.827 18.1111L110.177 19.399ZM112.536 20.1332C113.519 20.3809 114.298 20.6236 114.884 20.8587L115.43 19.5242C114.76 19.2553 113.912 18.994 112.894 18.7376L112.536 20.1332ZM114.9 20.8649C115.408 21.0554 115.84 21.3596 116.203 21.7881L117.316 20.8628C116.797 20.2497 116.161 19.7979 115.414 19.518L114.9 20.8649ZM116.211 21.7983C116.526 22.1562 116.72 22.6698 116.72 23.417H118.173C118.173 22.4171 117.909 21.5363 117.308 20.8526L116.211 21.7983ZM116.72 23.417C116.72 24.2693 116.39 24.9585 115.687 25.5324L116.611 26.6441C117.637 25.8067 118.173 24.7152 118.173 23.417H116.72ZM115.682 25.5369C115.009 26.0964 113.995 26.4266 112.537 26.4266V27.8666C114.199 27.8666 115.593 27.4913 116.616 26.6395L115.682 25.5369Z" fill="black"/>
<path d="M51.0519 50.7363C50.7297 50.7363 50.4584 50.627 50.2379 50.4086C50.0175 50.1902 49.9072 49.9214 49.9072 49.6022V34.5579C49.9072 34.1043 50.0683 33.7179 50.3906 33.3987C50.7128 33.0627 51.1028 32.8947 51.5607 32.8947H51.8914C52.4341 32.8947 52.9004 33.1467 53.2905 33.6507L63.0842 47.6619V34.0539C63.0842 33.7347 63.1944 33.4659 63.4149 33.2475C63.6353 33.0123 63.9067 32.8947 64.2289 32.8947C64.5511 32.8947 64.8225 33.0123 65.0429 33.2475C65.2803 33.4659 65.3991 33.7347 65.3991 34.0539V49.0983C65.3991 49.5519 65.2295 49.9383 64.8903 50.2575C64.5681 50.5767 64.178 50.7363 63.7201 50.7363H63.4149C63.1435 50.7363 62.8892 50.6775 62.6517 50.5599C62.4143 50.4255 62.2193 50.2574 62.0667 50.0558L52.2221 35.9691V49.6022C52.2221 49.9214 52.1034 50.1902 51.866 50.4086C51.6455 50.627 51.3742 50.7363 51.0519 50.7363ZM76.517 50.8622C75.2112 50.8622 74.0664 50.5851 73.0831 50.0307C72.0995 49.4763 71.3363 48.6951 70.7936 47.6871C70.2679 46.6623 70.0051 45.4947 70.0051 44.1843C70.0051 42.8739 70.2679 41.7146 70.7936 40.7066C71.3363 39.6818 72.0995 38.8923 73.0831 38.3379C74.0664 37.7835 75.2112 37.5063 76.517 37.5063C77.8058 37.5063 78.9421 37.7835 79.9257 38.3379C80.9093 38.8923 81.6724 39.6818 82.2151 40.7066C82.7578 41.7146 83.0291 42.8739 83.0291 44.1843C83.0291 45.4947 82.7578 46.6623 82.2151 47.6871C81.6724 48.6951 80.9093 49.4763 79.9257 50.0307C78.9421 50.5851 77.8058 50.8622 76.517 50.8622ZM76.517 48.7707C77.2123 48.7707 77.8737 48.6111 78.5012 48.2919C79.1456 47.9727 79.6713 47.4687 80.0783 46.7799C80.5023 46.0911 80.7143 45.2175 80.7143 44.1591C80.7143 43.1175 80.5023 42.2523 80.0783 41.5635C79.6713 40.8747 79.1456 40.379 78.5012 40.0766C77.8737 39.7574 77.2123 39.5979 76.517 39.5979C75.8047 39.5979 75.1264 39.7574 74.4819 40.0766C73.8547 40.379 73.3375 40.8747 72.9304 41.5635C72.5234 42.2523 72.3199 43.1175 72.3199 44.1591C72.3199 45.2175 72.5234 46.0911 72.9304 46.7799C73.3375 47.4687 73.8547 47.9727 74.4819 48.2919C75.1264 48.6111 75.8047 48.7707 76.517 48.7707ZM88.6866 50.7363C88.3644 50.7363 88.093 50.627 87.8726 50.4086C87.6521 50.1902 87.5419 49.9214 87.5419 49.6022V38.7915C87.5419 38.4723 87.6521 38.2035 87.8726 37.9851C88.093 37.7499 88.3644 37.6323 88.6866 37.6323C89.0088 37.6323 89.2801 37.7499 89.5006 37.9851C89.738 38.2035 89.8567 38.4723 89.8567 38.7915V39.8751C91.0439 38.2959 92.3751 37.5063 93.8505 37.5063H93.9777C94.2999 37.5063 94.5628 37.6155 94.7663 37.8339C94.9868 38.0523 95.097 38.3211 95.097 38.6403C95.097 38.9595 94.9868 39.2199 94.7663 39.4215C94.5458 39.6231 94.266 39.7239 93.9268 39.7239H93.7997C92.9856 39.7239 92.2395 39.9255 91.5611 40.3287C90.8828 40.7151 90.3146 41.2527 89.8567 41.9415V49.6022C89.8567 49.9214 89.738 50.1902 89.5006 50.4086C89.2801 50.627 89.0088 50.7363 88.6866 50.7363ZM103.029 50.8622C100.553 50.8622 99.3151 49.7534 99.3151 47.5358V39.7239H97.509C97.3734 39.7239 97.2546 39.6819 97.1529 39.5979C97.0681 39.4971 97.0257 39.3795 97.0257 39.2451C97.0257 39.0771 97.102 38.9342 97.2546 38.8166L100.714 35.4651C100.867 35.3139 101.011 35.2383 101.147 35.2383C101.282 35.2383 101.393 35.2887 101.477 35.3895C101.579 35.4903 101.63 35.6079 101.63 35.7423V37.7583H104.505C104.793 37.7583 105.03 37.8507 105.217 38.0355C105.403 38.2203 105.497 38.4555 105.497 38.7411C105.497 39.0099 105.403 39.245 105.217 39.4466C105.03 39.6314 104.793 39.7239 104.505 39.7239H101.63V47.3343C101.63 47.9895 101.783 48.4095 102.088 48.5943C102.41 48.7623 102.809 48.8463 103.283 48.8463C103.623 48.8463 103.962 48.7958 104.301 48.695C104.369 48.6782 104.437 48.6615 104.505 48.6447C104.589 48.6279 104.691 48.6194 104.81 48.6194C105.047 48.6194 105.259 48.7118 105.446 48.8966C105.632 49.0646 105.726 49.2746 105.726 49.5266C105.726 49.913 105.531 50.207 105.14 50.4086C104.479 50.711 103.775 50.8622 103.029 50.8622ZM115.163 50.8622C113.094 50.8622 111.475 50.2827 110.304 49.1235C109.151 47.9475 108.575 46.3011 108.575 44.1843C108.575 42.9915 108.795 41.891 109.236 40.883C109.677 39.875 110.355 39.0603 111.271 38.4387C112.187 37.8171 113.315 37.5063 114.654 37.5063C115.909 37.5063 116.995 37.8003 117.91 38.3883C118.826 38.9595 119.521 39.7322 119.996 40.7066C120.471 41.6642 120.709 42.7142 120.709 43.8566C120.709 44.1758 120.598 44.4446 120.378 44.663C120.174 44.8814 119.895 44.9907 119.538 44.9907H110.915C111.051 46.1667 111.492 47.0823 112.238 47.7375C112.984 48.3927 114.027 48.7203 115.367 48.7203C116.079 48.7203 116.698 48.653 117.224 48.5186C117.766 48.3842 118.292 48.1911 118.801 47.9391C118.936 47.8719 119.089 47.8383 119.259 47.8383C119.53 47.8383 119.767 47.9307 119.971 48.1155C120.174 48.3003 120.276 48.5355 120.276 48.8211C120.276 49.1907 120.056 49.5015 119.615 49.7535C118.953 50.1231 118.3 50.4002 117.656 50.585C117.012 50.7698 116.181 50.8622 115.163 50.8622ZM118.419 43.1258C118.368 42.3027 118.148 41.6138 117.758 41.0594C117.385 40.5051 116.918 40.1019 116.359 39.8499C115.799 39.5811 115.231 39.4466 114.654 39.4466C114.078 39.4466 113.51 39.5811 112.95 39.8499C112.39 40.1019 111.924 40.5051 111.551 41.0594C111.178 41.6138 110.966 42.3027 110.915 43.1258H118.419Z" fill="black"/>
<path d="M50.2379 50.4086L50.7518 49.8996L50.2379 50.4086ZM50.3905 33.3986L50.9044 33.9077L50.9112 33.9012L50.9175 33.8945L50.3905 33.3986ZM53.2905 33.6506L53.8879 33.2407L53.878 33.2263L53.8673 33.2126L53.2905 33.6506ZM63.0842 47.6618L62.4868 48.0717L63.811 49.9663V47.6618H63.0842ZM63.4149 33.2474L63.9287 33.7565L63.9384 33.7471L63.9474 33.7373L63.4149 33.2474ZM65.0429 33.2474L64.5104 33.7373L64.5286 33.7569L64.5484 33.7749L65.0429 33.2474ZM64.8903 50.2574L64.3898 49.7354L64.383 49.7419L64.3764 49.7484L64.8903 50.2574ZM62.6517 50.5598L62.2912 51.185L62.3087 51.1949L62.3266 51.2037L62.6517 50.5598ZM62.0667 50.0558L61.469 50.4657L61.477 50.4768L61.4852 50.4878L62.0667 50.0558ZM52.2221 35.969L52.8198 35.5591L51.4953 33.6641V35.969H52.2221ZM51.866 50.4086L51.3715 49.8811L51.3616 49.89L51.3521 49.8996L51.866 50.4086ZM51.0519 50.0162C50.9153 50.0162 50.831 49.9778 50.7518 49.8996L49.7241 50.9177C50.0858 51.2762 50.5441 51.4562 51.0519 51.4562V50.0162ZM50.7518 49.8996C50.6728 49.8211 50.634 49.7376 50.634 49.6022H49.1804C49.1804 50.1053 49.3621 50.5593 49.7241 50.9177L50.7518 49.8996ZM50.634 49.6022V34.5578H49.1804V49.6022H50.634ZM50.634 34.5578C50.634 34.2941 50.7193 34.0913 50.9044 33.9077L49.8767 32.8896C49.4174 33.3444 49.1804 33.9144 49.1804 34.5578H50.634ZM50.9175 33.8945C51.106 33.6981 51.3068 33.6146 51.5607 33.6146V32.1746C50.8988 32.1746 50.3196 32.4271 49.8636 32.9028L50.9175 33.8945ZM51.5607 33.6146H51.8914V32.1746H51.5607V33.6146ZM51.8914 33.6146C52.1656 33.6146 52.4331 33.7262 52.7137 34.0886L53.8673 33.2126C53.3678 32.567 52.7025 32.1746 51.8914 32.1746V33.6146ZM52.6931 34.0605L62.4868 48.0717L63.6816 47.2519L53.8879 33.2407L52.6931 34.0605ZM63.811 47.6618V34.0538H62.3574V47.6618H63.811ZM63.811 34.0538C63.811 33.9185 63.8498 33.8349 63.9287 33.7565L62.901 32.7384C62.5391 33.0967 62.3574 33.5508 62.3574 34.0538H63.811ZM63.9474 33.7373C64.0312 33.648 64.1099 33.6146 64.2289 33.6146V32.1746C63.7034 32.1746 63.2395 32.3765 62.8824 32.7576L63.9474 33.7373ZM64.2289 33.6146C64.3478 33.6146 64.4266 33.648 64.5104 33.7373L65.5754 32.7576C65.2183 32.3765 64.7544 32.1746 64.2289 32.1746V33.6146ZM64.5484 33.7749C64.6386 33.858 64.6723 33.9362 64.6723 34.0538H66.1259C66.1259 33.5333 65.9221 33.0737 65.5374 32.7199L64.5484 33.7749ZM64.6723 34.0538V49.0982H66.1259V34.0538H64.6723ZM64.6723 49.0982C64.6723 49.3497 64.5879 49.5489 64.3898 49.7354L65.3908 50.7794C65.871 50.3277 66.1259 49.7539 66.1259 49.0982H64.6723ZM64.3764 49.7484C64.1911 49.9317 63.9864 50.0162 63.7201 50.0162V51.4562C64.3697 51.4562 64.945 51.2215 65.4041 50.7665L64.3764 49.7484ZM63.7201 50.0162H63.4149V51.4562H63.7201V50.0162ZM63.4149 50.0162C63.2538 50.0162 63.1111 49.9824 62.9769 49.9159L62.3266 51.2037C62.6672 51.3725 63.0333 51.4562 63.4149 51.4562V50.0162ZM63.0122 49.9346C62.8545 49.8453 62.7368 49.7409 62.6481 49.6238L61.4852 50.4878C61.7018 50.7739 61.9741 51.0055 62.2912 51.185L63.0122 49.9346ZM62.6643 49.6459L52.8198 35.5591L51.6244 36.3789L61.469 50.4657L62.6643 49.6459ZM51.4953 35.969V49.6022H52.9489V35.969H51.4953ZM51.4953 49.6022C51.4953 49.7201 51.4616 49.7981 51.3715 49.8811L52.3604 50.9361C52.7452 50.5824 52.9489 50.123 52.9489 49.6022H51.4953ZM51.3521 49.8996C51.2729 49.9778 51.1886 50.0162 51.0519 50.0162V51.4562C51.5597 51.4562 52.0181 51.2762 52.3798 50.9177L51.3521 49.8996ZM73.0831 50.0306L73.4423 49.4049L73.0831 50.0306ZM70.7936 47.687L70.1456 48.0132L70.149 48.0197L70.1521 48.0259L70.7936 47.687ZM70.7936 40.7066L70.1499 40.3721L70.149 40.3742L70.1477 40.3761L70.7936 40.7066ZM73.0831 38.3378L73.4423 38.9637L73.0831 38.3378ZM79.9257 38.3378L79.5664 38.9637L79.9257 38.3378ZM82.2151 40.7066L81.5717 41.0412L81.5726 41.0433L81.5738 41.0455L82.2151 40.7066ZM82.2151 47.687L82.8564 48.0259L82.8576 48.0237L82.8588 48.0216L82.2151 47.687ZM79.9257 50.0306L79.5664 49.4049L79.9257 50.0306ZM78.5012 48.2918L78.1763 47.6479L78.1726 47.6496L78.1692 47.6513L78.5012 48.2918ZM80.0783 46.7798L79.4579 46.4049L79.4545 46.4105L79.4511 46.4162L80.0783 46.7798ZM80.0783 41.5634L79.4511 41.9273L79.4545 41.9328L79.4579 41.9383L80.0783 41.5634ZM78.5012 40.0766L78.1692 40.7172L78.1797 40.7225L78.1901 40.7273L78.5012 40.0766ZM74.4819 40.0766L74.8 40.7241L74.8034 40.7225L74.8071 40.7205L74.4819 40.0766ZM72.9304 41.5634L72.303 41.1998L72.9304 41.5634ZM72.9304 46.7798L72.303 47.1437L72.9304 46.7798ZM74.4819 48.2918L74.15 48.9324L74.1534 48.9341L74.157 48.9357L74.4819 48.2918ZM76.517 50.1422C75.3177 50.1422 74.3005 49.8885 73.4423 49.4049L72.7235 50.6565C73.8326 51.2815 75.1048 51.5822 76.517 51.5822V50.1422ZM73.4423 49.4049C72.5806 48.9192 71.9141 48.2385 71.4349 47.3481L70.1521 48.0259C70.7583 49.1515 71.6181 50.0333 72.7235 50.6565L73.4423 49.4049ZM71.4415 47.3609C70.9744 46.4505 70.7319 45.3972 70.7319 44.1842H69.2782C69.2782 45.5921 69.5612 46.8741 70.1456 48.0132L71.4415 47.3609ZM70.7319 44.1842C70.7319 42.971 70.9746 41.9282 71.4393 41.0371L70.1477 40.3761C69.561 41.501 69.2782 42.7766 69.2782 44.1842H70.7319ZM71.4371 41.0412C71.9173 40.1342 72.5838 39.4476 73.4423 38.9637L72.7235 37.7121C71.6149 38.3369 70.7551 39.2294 70.1499 40.3721L71.4371 41.0412ZM73.4423 38.9637C74.3005 38.4799 75.3177 38.2262 76.517 38.2262V36.7862C75.1048 36.7862 73.8326 37.0869 72.7235 37.7121L73.4423 38.9637ZM76.517 38.2262C77.6978 38.2262 78.7068 38.4792 79.5664 38.9637L80.2852 37.7121C79.1776 37.0877 77.9141 36.7862 76.517 36.7862V38.2262ZM79.5664 38.9637C80.425 39.4476 81.0912 40.1342 81.5717 41.0412L82.8588 40.3721C82.2536 39.2294 81.3938 38.3369 80.2852 37.7121L79.5664 38.9637ZM81.5738 41.0455C82.0528 41.9347 82.3023 42.9744 82.3023 44.1842H83.7559C83.7559 42.7733 83.463 41.4945 82.8564 40.3677L81.5738 41.0455ZM82.3023 44.1842C82.3023 45.3936 82.0528 46.4438 81.5717 47.3525L82.8588 48.0216C83.463 46.8806 83.7559 45.5957 83.7559 44.1842H82.3023ZM81.5738 47.3481C81.0946 48.2385 80.4282 48.9192 79.5664 49.4049L80.2852 50.6565C81.3907 50.0333 82.2505 49.1515 82.8564 48.0259L81.5738 47.3481ZM79.5664 49.4049C78.7068 49.8893 77.6978 50.1422 76.517 50.1422V51.5822C77.9141 51.5822 79.1776 51.2808 80.2852 50.6565L79.5664 49.4049ZM76.517 49.4906C77.3295 49.4906 78.1046 49.3029 78.8333 48.9324L78.1692 47.6513C77.643 47.9191 77.0953 48.0506 76.517 48.0506V49.4906ZM78.8263 48.9357C79.6112 48.5469 80.2363 47.9381 80.7055 47.1437L79.4511 46.4162C79.1066 46.9992 78.6799 47.3983 78.1763 47.6479L78.8263 48.9357ZM80.699 47.1547C81.2109 46.3229 81.4411 45.3093 81.4411 44.159H79.9875C79.9875 45.1255 79.7939 45.8592 79.4579 46.4049L80.699 47.1547ZM81.4411 44.159C81.4411 43.0231 81.2099 42.0187 80.699 41.1885L79.4579 41.9383C79.7949 42.4857 79.9875 43.2117 79.9875 44.159H81.4411ZM80.7055 41.1998C80.2348 40.4028 79.6057 39.7982 78.8125 39.426L78.1901 40.7273C78.6858 40.9598 79.108 41.3465 79.4511 41.9273L80.7055 41.1998ZM78.8333 39.4361C78.1046 39.0655 77.3295 38.8778 76.517 38.8778V40.3178C77.0953 40.3178 77.643 40.4493 78.1692 40.7172L78.8333 39.4361ZM76.517 38.8778C75.6906 38.8778 74.901 39.0641 74.157 39.4327L74.8071 40.7205C75.3517 40.4508 75.9191 40.3178 76.517 40.3178V38.8778ZM74.1641 39.4291C73.3883 39.803 72.771 40.4076 72.303 41.1998L73.5577 41.9273C73.9036 41.3417 74.3208 40.955 74.8 40.7241L74.1641 39.4291ZM72.303 41.1998C71.8138 42.0276 71.5931 43.0277 71.5931 44.159H73.0467C73.0467 43.2072 73.2328 42.4769 73.5577 41.9273L72.303 41.1998ZM71.5931 44.159C71.5931 45.3048 71.8129 46.3142 72.303 47.1437L73.5577 46.4162C73.2338 45.8681 73.0467 45.1301 73.0467 44.159H71.5931ZM72.303 47.1437C72.7698 47.9333 73.3828 48.5421 74.15 48.9324L74.8141 47.6513C74.3264 47.4033 73.9048 47.004 73.5577 46.4162L72.303 47.1437ZM74.157 48.9357C74.901 49.3044 75.6906 49.4906 76.517 49.4906V48.0506C75.9191 48.0506 75.3517 47.9177 74.8071 47.6479L74.157 48.9357ZM87.8726 50.4086L88.3867 49.8996L87.8726 50.4086ZM87.8726 37.985L88.3867 38.4941L88.3961 38.4847L88.4053 38.4749L87.8726 37.985ZM89.5006 37.985L88.9681 38.4749L88.9863 38.4945L89.0061 38.5125L89.5006 37.985ZM89.8567 39.875H89.1299V42.0475L90.4396 40.3051L89.8567 39.875ZM94.7663 37.8338L94.2323 38.3222L94.242 38.3328L94.2524 38.3429L94.7663 37.8338ZM94.7663 39.4214L94.2733 38.8925L94.7663 39.4214ZM91.5611 40.3286L91.9235 40.9529L91.9293 40.9495L91.9352 40.9461L91.5611 40.3286ZM89.8567 41.9414L89.2499 41.5454L89.1299 41.7257V41.9414H89.8567ZM89.5006 50.4086L89.0061 49.8811L88.9962 49.89L88.9868 49.8996L89.5006 50.4086ZM88.6866 50.0162C88.5499 50.0162 88.4656 49.9778 88.3867 49.8996L87.3587 50.9177C87.7204 51.2762 88.1788 51.4562 88.6866 51.4562V50.0162ZM88.3867 49.8996C88.3074 49.8211 88.2687 49.7376 88.2687 49.6022H86.8151C86.8151 50.1053 86.997 50.5593 87.3587 50.9177L88.3867 49.8996ZM88.2687 49.6022V38.7914H86.8151V49.6022H88.2687ZM88.2687 38.7914C88.2687 38.6561 88.3074 38.5725 88.3867 38.4941L87.3587 37.476C86.997 37.8343 86.8151 38.2884 86.8151 38.7914H88.2687ZM88.4053 38.4749C88.4891 38.3856 88.5679 38.3522 88.6866 38.3522V36.9122C88.1611 36.9122 87.6972 37.1141 87.3401 37.4952L88.4053 38.4749ZM88.6866 38.3522C88.8055 38.3522 88.8843 38.3856 88.9681 38.4749L90.0334 37.4952C89.6763 37.1141 89.2123 36.9122 88.6866 36.9122V38.3522ZM89.0061 38.5125C89.0963 38.5956 89.1299 38.6736 89.1299 38.7914H90.5835C90.5835 38.2709 90.3798 37.8113 89.9953 37.4575L89.0061 38.5125ZM89.1299 38.7914V39.875H90.5835V38.7914H89.1299ZM90.4396 40.3051C91.5412 38.8399 92.6792 38.2262 93.8505 38.2262V36.7862C92.0711 36.7862 90.5467 37.752 89.2738 39.4449L90.4396 40.3051ZM93.8505 38.2262H93.9777V36.7862H93.8505V38.2262ZM93.9777 38.2262C94.1139 38.2262 94.1773 38.2632 94.2323 38.3222L95.3005 37.3454C94.9482 36.9677 94.486 36.7862 93.9777 36.7862V38.2262ZM94.2524 38.3429C94.3317 38.4213 94.3702 38.5049 94.3702 38.6402H95.8238C95.8238 38.1372 95.6421 37.6831 95.2804 37.3248L94.2524 38.3429ZM94.3702 38.6402C94.3702 38.7751 94.3329 38.838 94.2733 38.8925L95.2593 39.9504C95.6406 39.6017 95.8238 39.1437 95.8238 38.6402H94.3702ZM94.2733 38.8925C94.205 38.9551 94.109 39.0038 93.9268 39.0038V40.4438C94.423 40.4438 94.8869 40.2912 95.2593 39.9504L94.2733 38.8925ZM93.9268 39.0038H93.7997V40.4438H93.9268V39.0038ZM93.7997 39.0038C92.858 39.0038 91.9819 39.2388 91.1873 39.7113L91.9352 40.9461C92.497 40.6121 93.1133 40.4438 93.7997 40.4438V39.0038ZM91.1989 39.7044C90.4159 40.1505 89.7661 40.7688 89.2499 41.5454L90.4639 42.3374C90.8634 41.7365 91.3498 41.2795 91.9235 40.9529L91.1989 39.7044ZM89.1299 41.9414V49.6022H90.5835V41.9414H89.1299ZM89.1299 49.6022C89.1299 49.7201 89.0963 49.7981 89.0061 49.8811L89.9953 50.9361C90.3798 50.5824 90.5835 50.123 90.5835 49.6022H89.1299ZM88.9868 49.8996C88.9075 49.9778 88.8232 50.0162 88.6866 50.0162V51.4562C89.1944 51.4562 89.6527 51.2762 90.0147 50.9177L88.9868 49.8996ZM99.3151 39.7238H100.042V39.0038H99.3151V39.7238ZM97.1529 39.5978L96.5945 40.0589L96.6366 40.109L96.6875 40.151L97.1529 39.5978ZM97.2546 38.8166L97.7006 39.3849L97.7334 39.36L97.7627 39.3314L97.2546 38.8166ZM100.714 35.465L101.222 35.9798L101.225 35.9769L101.228 35.9741L100.714 35.465ZM101.477 35.3894L100.919 35.8505L100.94 35.8754L100.963 35.8985L101.477 35.3894ZM101.63 37.7582H100.903V38.4782H101.63V37.7582ZM105.217 38.0354L104.703 38.5445L105.217 38.0354ZM105.217 39.4466L105.731 39.9557L105.742 39.9446L105.752 39.9331L105.217 39.4466ZM101.63 39.7238V39.0038H100.903V39.7238H101.63ZM102.088 48.5942L101.709 49.2086L101.729 49.2206L101.749 49.2314L102.088 48.5942ZM104.301 48.695L104.125 47.9966L104.108 48.0007L104.092 48.0055L104.301 48.695ZM104.505 48.6446L104.362 47.9385L104.345 47.9419L104.328 47.9462L104.505 48.6446ZM105.446 48.8966L104.932 49.4057L104.944 49.4179L104.957 49.4294L105.446 48.8966ZM105.14 50.4086L105.445 51.0624L105.461 51.0549L105.476 51.047L105.14 50.4086ZM103.029 50.1422C101.886 50.1422 101.164 49.8847 100.731 49.4966C100.311 49.1208 100.042 48.5138 100.042 47.5358H98.5883C98.5883 48.7754 98.9377 49.8317 99.7561 50.5646C100.561 51.2853 101.696 51.5822 103.029 51.5822V50.1422ZM100.042 47.5358V39.7238H98.5883V47.5358H100.042ZM99.3151 39.0038H97.509V40.4438H99.3151V39.0038ZM97.509 39.0038C97.518 39.0038 97.5376 39.0055 97.5626 39.0144C97.5877 39.0233 97.6066 39.0353 97.618 39.0446L96.6875 40.151C96.9232 40.3457 97.2076 40.4438 97.509 40.4438V39.0038ZM97.7111 39.1368C97.7205 39.1481 97.7329 39.167 97.7418 39.192C97.7508 39.2165 97.7525 39.2359 97.7525 39.245H96.2989C96.2989 39.5433 96.398 39.8251 96.5945 40.0589L97.7111 39.1368ZM97.7525 39.245C97.7525 39.2736 97.7447 39.3122 97.7251 39.3487C97.7072 39.3825 97.6907 39.3926 97.7006 39.3849L96.8084 38.2483C96.5068 38.4806 96.2989 38.8217 96.2989 39.245H97.7525ZM97.7627 39.3314L101.222 35.9798L100.206 34.9502L96.7464 38.3018L97.7627 39.3314ZM101.228 35.9741C101.269 35.934 101.285 35.9265 101.277 35.9313C101.265 35.9373 101.219 35.9582 101.147 35.9582V34.5182C100.731 34.5182 100.411 34.7467 100.2 34.956L101.228 35.9741ZM101.147 35.9582C101.122 35.9582 101.077 35.9532 101.027 35.9297C100.975 35.9061 100.939 35.8745 100.919 35.8505L102.036 34.9286C101.809 34.6591 101.492 34.5182 101.147 34.5182V35.9582ZM100.963 35.8985C100.956 35.8915 100.939 35.8713 100.924 35.8368C100.909 35.8015 100.903 35.7674 100.903 35.7422H102.357C102.357 35.4043 102.22 35.1072 101.991 34.8804L100.963 35.8985ZM100.903 35.7422V37.7582H102.357V35.7422H100.903ZM101.63 38.4782H104.505V37.0382H101.63V38.4782ZM104.505 38.4782C104.62 38.4782 104.666 38.508 104.703 38.5445L105.731 37.5264C105.394 37.1933 104.966 37.0382 104.505 37.0382V38.4782ZM104.703 38.5445C104.74 38.5812 104.77 38.6268 104.77 38.741H106.223C106.223 38.2841 106.067 37.8593 105.731 37.5264L104.703 38.5445ZM104.77 38.741C104.77 38.8262 104.747 38.8886 104.681 38.9601L105.752 39.9331C106.059 39.6014 106.223 39.1934 106.223 38.741H104.77ZM104.703 38.9376C104.666 38.9741 104.62 39.0038 104.505 39.0038V40.4438C104.966 40.4438 105.394 40.2888 105.731 39.9557L104.703 38.9376ZM104.505 39.0038H101.63V40.4438H104.505V39.0038ZM100.903 39.7238V47.3342H102.357V39.7238H100.903ZM100.903 47.3342C100.903 48.0319 101.054 48.8124 101.709 49.2086L102.467 47.9798C102.489 47.9933 102.463 47.9935 102.428 47.8968C102.39 47.7924 102.357 47.6141 102.357 47.3342H100.903ZM101.749 49.2314C102.203 49.4678 102.725 49.5662 103.283 49.5662V48.1262C102.892 48.1262 102.617 48.0566 102.426 47.957L101.749 49.2314ZM103.283 49.5662C103.696 49.5662 104.106 49.5048 104.51 49.3848L104.092 48.0055C103.818 48.0869 103.549 48.1262 103.283 48.1262V49.5662ZM104.477 49.3934C104.545 49.3766 104.613 49.3598 104.681 49.343L104.328 47.9462C104.26 47.963 104.192 47.9798 104.125 47.9966L104.477 49.3934ZM104.647 49.3507C104.671 49.3459 104.723 49.3394 104.81 49.3394V47.8994C104.659 47.8994 104.507 47.9097 104.362 47.9385L104.647 49.3507ZM104.81 49.3394C104.832 49.3394 104.865 49.3394 104.932 49.4057L105.96 48.3876C105.653 48.0842 105.262 47.8994 104.81 47.8994V49.3394ZM104.957 49.4294C104.982 49.4517 104.988 49.4652 104.99 49.4702C104.992 49.475 104.999 49.4906 104.999 49.5266H106.452C106.452 49.074 106.274 48.6698 105.935 48.3638L104.957 49.4294ZM104.999 49.5266C104.999 49.5936 104.984 49.6233 104.972 49.6416C104.957 49.6641 104.915 49.7129 104.804 49.7702L105.476 51.047C105.756 50.9028 106.007 50.7036 106.187 50.4324C106.369 50.1564 106.452 49.8461 106.452 49.5266H104.999ZM104.836 49.7549C104.272 50.0126 103.673 50.1422 103.029 50.1422V51.5822C103.878 51.5822 104.686 51.4094 105.445 51.0624L104.836 49.7549ZM110.304 49.1234L109.783 49.625L109.787 49.6289L109.79 49.6325L110.304 49.1234ZM111.271 38.4386L111.682 39.0326L111.271 38.4386ZM117.91 38.3882L117.515 38.9925L117.519 38.9949L117.523 38.9976L117.91 38.3882ZM119.996 40.7066L119.342 41.0196L119.343 41.022L119.344 41.0241L119.996 40.7066ZM120.378 44.663L119.864 44.154L119.854 44.1641L119.844 44.1746L120.378 44.663ZM110.915 44.9906V44.2706H110.1L110.193 45.0725L110.915 44.9906ZM112.238 47.7374L111.756 48.2762L112.238 47.7374ZM117.224 48.5186L117.047 47.8202L117.045 47.8207L117.042 47.8214L117.224 48.5186ZM118.801 47.939L118.476 47.2951L118.801 47.939ZM119.971 48.1154L120.462 47.5848L119.971 48.1154ZM119.615 49.7534L119.972 50.3805L119.975 50.3789L119.978 50.3772L119.615 49.7534ZM117.656 50.585L117.858 51.2767L117.656 50.585ZM118.419 43.1258V43.8458H119.192L119.145 43.0819L118.419 43.1258ZM117.758 41.0594L117.153 41.4588L117.157 41.465L117.161 41.471L117.758 41.0594ZM116.359 39.8498L116.042 40.4976L116.05 40.5017L116.058 40.5053L116.359 39.8498ZM112.95 39.8498L113.251 40.5053L113.259 40.5017L113.267 40.4976L112.95 39.8498ZM111.551 41.0594L112.156 41.4588L111.551 41.0594ZM110.915 43.1258L110.189 43.0819L110.142 43.8458H110.915V43.1258ZM115.163 50.1422C113.236 50.1422 111.82 49.6065 110.818 48.6144L109.79 49.6325C111.129 50.9587 112.952 51.5822 115.163 51.5822V50.1422ZM110.826 48.6218C109.839 47.616 109.301 46.1705 109.301 44.1842H107.848C107.848 46.4316 108.463 48.2789 109.783 49.625L110.826 48.6218ZM109.301 44.1842C109.301 43.0814 109.505 42.0794 109.903 41.1693L108.569 40.5967C108.085 41.7026 107.848 42.9014 107.848 44.1842H109.301ZM109.903 41.1693C110.289 40.2859 110.879 39.5777 111.682 39.0326L110.86 37.8446C109.831 38.5428 109.064 39.4641 108.569 40.5967L109.903 41.1693ZM111.682 39.0326C112.453 38.5087 113.43 38.2262 114.654 38.2262V36.7862C113.199 36.7862 111.92 37.1253 110.86 37.8446L111.682 39.0326ZM114.654 38.2262C115.79 38.2262 116.734 38.4909 117.515 38.9925L118.306 37.7841C117.255 37.1095 116.028 36.7862 114.654 36.7862V38.2262ZM117.523 38.9976C118.322 39.4961 118.926 40.1657 119.342 41.0196L120.651 40.3937C120.117 39.2988 119.33 38.4228 118.298 37.7789L117.523 38.9976ZM119.344 41.0241C119.766 41.8759 119.982 42.8162 119.982 43.8566H121.435C121.435 42.6122 121.176 41.4525 120.649 40.3891L119.344 41.0241ZM119.982 43.8566C119.982 43.992 119.943 44.0755 119.864 44.154L120.892 45.1721C121.253 44.8137 121.435 44.3597 121.435 43.8566H119.982ZM119.844 44.1746C119.803 44.2178 119.733 44.2706 119.538 44.2706V45.7106C120.056 45.7106 120.545 45.545 120.912 45.1514L119.844 44.1746ZM119.538 44.2706H110.915V45.7106H119.538V44.2706ZM110.193 45.0725C110.344 46.3879 110.85 47.4809 111.756 48.2762L112.72 47.1986C112.133 46.6838 111.757 45.9453 111.637 44.9088L110.193 45.0725ZM111.756 48.2762C112.675 49.0833 113.911 49.4402 115.367 49.4402V48.0002C114.143 48.0002 113.293 47.7021 112.72 47.1986L111.756 48.2762ZM115.367 49.4402C116.122 49.4402 116.805 49.3692 117.405 49.2158L117.042 47.8214C116.591 47.9369 116.035 48.0002 115.367 48.0002V49.4402ZM117.4 49.217C117.995 49.0697 118.57 48.8582 119.126 48.5829L118.476 47.2951C118.013 47.5241 117.538 47.6988 117.047 47.8202L117.4 49.217ZM119.126 48.5829C119.149 48.5714 119.188 48.5582 119.259 48.5582V47.1182C118.989 47.1182 118.723 47.1722 118.476 47.2951L119.126 48.5829ZM119.259 48.5582C119.345 48.5582 119.408 48.5808 119.48 48.6463L120.462 47.5848C120.127 47.2805 119.715 47.1182 119.259 47.1182V48.5582ZM119.48 48.6463C119.526 48.6878 119.549 48.7272 119.549 48.821H121.003C121.003 48.3437 120.823 47.9126 120.462 47.5848L119.48 48.6463ZM119.549 48.821C119.549 48.8426 119.56 48.9535 119.251 49.1297L119.978 50.3772C120.551 50.0493 121.003 49.5386 121.003 48.821H119.549ZM119.258 49.1263C118.639 49.4721 118.038 49.7261 117.454 49.8933L117.858 51.2767C118.563 51.0744 119.268 50.7739 119.972 50.3805L119.258 49.1263ZM117.454 49.8933C116.9 50.0525 116.144 50.1422 115.163 50.1422V51.5822C116.217 51.5822 117.123 51.4874 117.858 51.2767L117.454 49.8933ZM119.145 43.0819C119.087 42.1557 118.836 41.3323 118.354 40.6478L117.161 41.471C117.46 41.8953 117.649 42.4495 117.694 43.1697L119.145 43.0819ZM118.362 40.6601C117.921 40.0049 117.354 39.5071 116.659 39.1944L116.058 40.5053C116.482 40.6965 116.848 41.0054 117.153 41.4588L118.362 40.6601ZM116.676 39.2021C116.025 38.8896 115.349 38.7266 114.654 38.7266V40.1666C115.112 40.1666 115.573 40.2725 116.042 40.4976L116.676 39.2021ZM114.654 38.7266C113.959 38.7266 113.283 38.8896 112.633 39.2021L113.267 40.4976C113.736 40.2725 114.196 40.1666 114.654 40.1666V38.7266ZM112.649 39.1944C111.954 39.5071 111.387 40.0049 110.946 40.6601L112.156 41.4588C112.461 41.0054 112.826 40.6965 113.251 40.5053L112.649 39.1944ZM110.946 40.6601C110.487 41.3426 110.246 42.1617 110.189 43.0819L111.64 43.1697C111.685 42.4437 111.869 41.885 112.156 41.4588L110.946 40.6601ZM110.915 43.8458H118.419V42.4058H110.915V43.8458Z" fill="black"/>
</g>
<defs>
<clipPath id="clip0_450_6">
<rect width="188" height="60" fill="white"/>
</clipPath>
</defs>
</svg>
