<svg width="93" height="30" viewBox="0 0 93 30" fill="none" xmlns="http://www.w3.org/2000/svg">
<g clip-path="url(#clip0_31_191)">
<path d="M13.4111 26.8687C13.9273 27.2827 14.6807 27.1988 15.0938 26.6815L16.9336 24.377C17.3468 23.8594 17.2631 23.1042 16.7468 22.6902L8.11139 15.7662C7.51226 15.2858 7.51226 14.3725 8.11139 13.892L16.7468 6.96806C17.2631 6.554 17.3468 5.79873 16.9336 5.28121L15.0938 2.97675C14.6807 2.45936 13.9273 2.37553 13.4111 2.78949L1.00204 12.7399C0.68938 12.9906 0.436976 13.3084 0.26352 13.6701C0.0900636 14.0317 0 14.4278 0 14.8291C0 15.2304 0.0900636 15.6265 0.26352 15.9882C0.436976 16.3497 0.68938 16.6677 1.00204 16.9183L13.4111 26.8687Z" fill="#41B883"/>
<path d="M79.418 27.3479C78.9019 27.7613 78.1492 27.6776 77.7361 27.1607L75.8971 24.8595C75.4835 24.3418 75.5672 23.5859 76.0841 23.1719L84.7167 16.2566C85.3164 15.7762 85.3164 14.8622 84.7167 14.3818L76.0841 7.4665C75.5672 7.05242 75.4835 6.29655 75.8971 5.77888L77.7361 3.47766C78.1492 2.9608 78.9019 2.87703 79.418 3.29049L91.8276 13.232C92.1402 13.4823 92.3927 13.7999 92.5662 14.1613C92.7395 14.5226 92.8297 14.9183 92.8297 15.3191C92.8297 15.7201 92.7395 16.1158 92.5662 16.4771C92.3927 16.8385 92.1402 17.156 91.8276 17.4064L79.418 27.3479Z" fill="#41B883"/>
<path d="M74.0749 0.563624L73.5044 0.386376C72.8728 0.190178 72.2022 0.544304 72.0064 1.17734L63.7484 27.884C63.5527 28.5171 63.906 29.1893 64.5375 29.3855L65.1081 29.5628C65.7397 29.759 66.4103 29.4048 66.6061 28.7718L74.8641 2.06508C75.0598 1.43205 74.7065 0.759822 74.0749 0.563624Z" fill="#41B883"/>
<path d="M26.8855 13.4473C26.7263 13.4473 26.5922 13.3927 26.4832 13.2835C26.3743 13.1743 26.3198 13.0399 26.3198 12.8803V5.23208C26.3198 5.07248 26.3743 4.93808 26.4832 4.82888C26.5922 4.71128 26.7263 4.65248 26.8855 4.65248H29.4122C30.3676 4.65248 31.1763 4.86668 31.8383 5.29508C32.5088 5.71508 33.0116 6.26108 33.3468 6.93308C33.682 7.60508 33.8497 8.31068 33.8497 9.04988C33.8497 9.78908 33.682 10.4947 33.3468 11.1667C33.0116 11.8387 32.5088 12.3889 31.8383 12.8173C31.1763 13.2373 30.3676 13.4473 29.4122 13.4473H26.8855ZM29.2739 12.3763C29.9611 12.3763 30.5645 12.2377 31.0841 11.9605C31.6037 11.6749 32.006 11.2843 32.2909 10.7887C32.5758 10.2847 32.7183 9.70508 32.7183 9.04988C32.7183 8.39468 32.5758 7.81928 32.2909 7.32368C32.006 6.81968 31.6037 6.42908 31.0841 6.15188C30.5645 5.86628 29.9611 5.72348 29.2739 5.72348H27.4638V12.3763H29.2739ZM36.9544 13.4473C36.7951 13.4473 36.6611 13.3927 36.5521 13.2835C36.4432 13.1743 36.3887 13.0399 36.3887 12.8803V5.23208C36.3887 5.07248 36.4432 4.93808 36.5521 4.82888C36.6611 4.71128 36.7951 4.65248 36.9544 4.65248H41.9952C42.1461 4.65248 42.2718 4.70708 42.3723 4.81628C42.4813 4.91708 42.5357 5.04308 42.5357 5.19428C42.5357 5.34548 42.4813 5.47148 42.3723 5.57228C42.2718 5.67308 42.1461 5.72348 41.9952 5.72348H37.5326V8.50808H41.5427C41.6935 8.50808 41.8192 8.56268 41.9198 8.67188C42.0287 8.77268 42.0832 8.89868 42.0832 9.04988C42.0832 9.20108 42.0287 9.32708 41.9198 9.42788C41.8192 9.52868 41.6935 9.57908 41.5427 9.57908H37.5326V12.3763H41.9952C42.1461 12.3763 42.2718 12.4309 42.3723 12.5401C42.4813 12.6409 42.5357 12.7669 42.5357 12.9181C42.5357 13.0693 42.4813 13.1953 42.3723 13.2961C42.2718 13.3969 42.1461 13.4473 41.9952 13.4473H36.9544ZM48.0379 13.5103C47.6943 13.5103 47.4345 13.3171 47.2585 12.9307L44.1535 5.38328C44.1284 5.31608 44.1158 5.24468 44.1158 5.16908C44.1158 4.99268 44.1661 4.85408 44.2667 4.75328C44.3672 4.64408 44.5055 4.58948 44.6815 4.58948C44.7988 4.58948 44.9036 4.62728 44.9958 4.70288C45.0963 4.77008 45.1718 4.86248 45.222 4.98008L48.1761 12.3637L51.1303 4.98008C51.1805 4.86248 51.2518 4.77008 51.344 4.70288C51.4445 4.62728 51.5535 4.58948 51.6708 4.58948C51.8468 4.58948 51.9851 4.64408 52.0856 4.75328C52.1862 4.85408 52.2365 4.99268 52.2365 5.16908C52.2365 5.24468 52.2239 5.31608 52.1988 5.38328L49.0938 12.9307C48.9178 13.3171 48.658 13.5103 48.3144 13.5103H48.0379ZM55.6121 13.5733C54.7741 13.5733 54.0114 13.3843 53.3243 13.0063C53.1818 12.9055 53.1106 12.7669 53.1106 12.5905C53.1106 12.4561 53.1566 12.3385 53.2488 12.2377C53.341 12.1369 53.4583 12.0865 53.6008 12.0865C53.6762 12.0865 53.7517 12.1033 53.8271 12.1369C54.0953 12.2545 54.3634 12.3469 54.6316 12.4141C54.8998 12.4813 55.2015 12.5149 55.5367 12.5149C56.4669 12.5149 56.932 12.2167 56.932 11.6203C56.932 11.4271 56.8231 11.2801 56.6052 11.1793C56.3957 11.0785 56.0479 10.9651 55.5618 10.8391C55.0674 10.7215 54.6567 10.5997 54.3299 10.4737C54.0114 10.3477 53.7349 10.1587 53.5002 9.90668C53.274 9.64628 53.1608 9.30608 53.1608 8.88608C53.1608 8.29808 53.3703 7.81928 53.7894 7.44968C54.2168 7.08008 54.8244 6.89528 55.6121 6.89528C56.2574 6.89528 56.865 7.00028 57.4349 7.21028C57.5522 7.24388 57.6402 7.30688 57.6988 7.39928C57.7659 7.49168 57.7994 7.58828 57.7994 7.68908C57.7994 7.82348 57.7491 7.94108 57.6486 8.04188C57.5564 8.14268 57.4391 8.19308 57.2966 8.19308C57.2547 8.19308 57.2002 8.18468 57.1332 8.16788C56.6471 8.01668 56.1694 7.94108 55.7001 7.94108C55.2476 7.94108 54.8914 8.02508 54.6316 8.19308C54.3802 8.35268 54.2545 8.56268 54.2545 8.82308C54.2545 9.07508 54.3718 9.25988 54.6065 9.37748C54.8411 9.49508 55.2057 9.60848 55.7001 9.71768C56.1946 9.84368 56.5968 9.96968 56.9069 10.0957C57.217 10.2133 57.481 10.4023 57.6988 10.6627C57.9251 10.9231 58.0383 11.2717 58.0383 11.7085C58.0383 12.2461 57.8246 12.6913 57.3972 13.0441C56.9781 13.3969 56.3831 13.5733 55.6121 13.5733Z" fill="white"/>
<path d="M26.483 13.2835L26.7371 13.029L26.483 13.2835ZM26.483 4.82889L26.7371 5.08345L26.7417 5.07873L26.7463 5.07385L26.483 4.82889ZM31.8381 5.29509L31.6434 5.59754L31.6456 5.59897L31.6478 5.60037L31.8381 5.29509ZM33.3466 6.93309L33.0254 7.09408L33.3466 6.93309ZM33.3466 11.1667L33.0254 11.0057L33.3466 11.1667ZM31.8381 12.8173L32.0303 13.1215L32.0312 13.1209L31.8381 12.8173ZM31.0839 11.9605L31.2527 12.2782L31.2546 12.2772L31.2567 12.2761L31.0839 11.9605ZM32.2907 10.7887L32.6018 10.9684L32.6026 10.9673L32.6032 10.9662L32.2907 10.7887ZM32.2907 7.32369L31.9782 7.50117L31.9788 7.50231L31.9795 7.50344L32.2907 7.32369ZM31.0839 6.15189L30.9113 6.46754L30.9132 6.46862L30.9152 6.46968L31.0839 6.15189ZM27.4635 5.72349V5.36349H27.1044V5.72349H27.4635ZM27.4635 12.3763H27.1044V12.7363H27.4635V12.3763ZM26.8853 13.0873C26.8178 13.0873 26.7761 13.0681 26.7371 13.029L26.2291 13.538C26.4078 13.7173 26.6344 13.8073 26.8853 13.8073V13.0873ZM26.7371 13.029C26.6979 12.9897 26.6788 12.948 26.6788 12.8803H25.9604C25.9604 13.1318 26.0504 13.3588 26.2291 13.538L26.7371 13.029ZM26.6788 12.8803V5.23209H25.9604V12.8803H26.6788ZM26.6788 5.23209C26.6788 5.1644 26.6979 5.12265 26.7371 5.08345L26.2291 4.57434C26.0504 4.75353 25.9604 4.98058 25.9604 5.23209H26.6788ZM26.7463 5.07385C26.7877 5.02915 26.8266 5.01249 26.8853 5.01249V4.29249C26.6256 4.29249 26.3964 4.39344 26.2199 4.58392L26.7463 5.07385ZM26.8853 5.01249H29.412V4.29249H26.8853V5.01249ZM29.412 5.01249C30.3131 5.01249 31.0506 5.21402 31.6434 5.59754L32.0329 4.99264C31.3015 4.51936 30.4217 4.29249 29.412 4.29249V5.01249ZM31.6478 5.60037C32.2654 5.98728 32.7214 6.48464 33.0254 7.09408L33.6678 6.7721C33.3015 6.03754 32.7518 5.44291 32.0285 4.98981L31.6478 5.60037ZM33.0254 7.09408C33.3361 7.71696 33.4903 8.36752 33.4903 9.04989H34.2086C34.2086 8.25386 34.0276 7.49323 33.6678 6.7721L33.0254 7.09408ZM33.4903 9.04989C33.4903 9.73226 33.3361 10.3828 33.0254 11.0057L33.6678 11.3277C34.0276 10.6066 34.2086 9.84592 34.2086 9.04989H33.4903ZM33.0254 11.0057C32.7211 11.6159 32.2642 12.1182 31.6451 12.5137L32.0312 13.1209C32.753 12.6596 33.3018 12.0615 33.6678 11.3277L33.0254 11.0057ZM31.6461 12.5131C31.053 12.8894 30.3143 13.0873 29.412 13.0873V13.8073C30.4204 13.8073 31.2993 13.5852 32.0303 13.1215L31.6461 12.5131ZM29.412 13.0873H26.8853V13.8073H29.412V13.0873ZM29.2737 12.7363C30.0099 12.7363 30.673 12.5875 31.2527 12.2782L30.9152 11.6427C30.4556 11.8879 29.9119 12.0163 29.2737 12.0163V12.7363ZM31.2567 12.2761C31.8315 11.9601 32.2828 11.5235 32.6018 10.9684L31.9795 10.6089C31.7287 11.0451 31.3754 11.3897 30.9113 11.6448L31.2567 12.2761ZM32.6032 10.9662C32.9226 10.4013 33.0772 9.75901 33.0772 9.04989H32.3589C32.3589 9.65118 32.2287 10.1681 31.9782 10.6112L32.6032 10.9662ZM33.0772 9.04989C33.0772 8.34091 32.9226 7.70175 32.6018 7.14394L31.9795 7.50344C32.2287 7.93683 32.3589 8.44848 32.3589 9.04989H33.0772ZM32.6032 7.14621C32.284 6.58155 31.8313 6.14281 31.2527 5.83411L30.9152 6.46968C31.3757 6.71538 31.7276 7.05783 31.9782 7.50117L32.6032 7.14621ZM31.2567 5.83624C30.6762 5.5172 30.0116 5.36349 29.2737 5.36349V6.08349C29.9103 6.08349 30.4525 6.21538 30.9113 6.46754L31.2567 5.83624ZM29.2737 5.36349H27.4635V6.08349H29.2737V5.36349ZM27.1044 5.72349V12.3763H27.8227V5.72349H27.1044ZM27.4635 12.7363H29.2737V12.0163H27.4635V12.7363ZM36.5519 13.2835L36.8058 13.029L36.5519 13.2835ZM36.5519 4.82889L36.8058 5.08345L36.8105 5.07873L36.815 5.07385L36.5519 4.82889ZM42.3721 4.81629L42.1081 5.06047L42.118 5.07105L42.1285 5.08082L42.3721 4.81629ZM42.3721 5.57229L42.1285 5.30776L42.1232 5.31265L42.1181 5.31774L42.3721 5.57229ZM37.5324 5.72349V5.36349H37.1732V5.72349H37.5324ZM37.5324 8.50809H37.1732V8.86809H37.5324V8.50809ZM41.9196 8.67189L41.6556 8.91607L41.6654 8.92665L41.6759 8.93642L41.9196 8.67189ZM41.9196 9.42789L41.6759 9.16336L41.6707 9.16825L41.6655 9.17334L41.9196 9.42789ZM37.5324 9.57909V9.21909H37.1732V9.57909H37.5324ZM37.5324 12.3763H37.1732V12.7363H37.5324V12.3763ZM42.3721 12.5401L42.1081 12.7843L42.118 12.7948L42.1285 12.8046L42.3721 12.5401ZM42.3721 13.2961L42.1285 13.0316L42.1232 13.0364L42.1181 13.0416L42.3721 13.2961ZM36.9542 13.0873C36.8866 13.0873 36.845 13.0681 36.8058 13.029L36.2978 13.538C36.4767 13.7173 36.7032 13.8073 36.9542 13.8073V13.0873ZM36.8058 13.029C36.7667 12.9897 36.7476 12.948 36.7476 12.8803H36.0293C36.0293 13.1318 36.1191 13.3588 36.2978 13.538L36.8058 13.029ZM36.7476 12.8803V5.23209H36.0293V12.8803H36.7476ZM36.7476 5.23209C36.7476 5.1644 36.7667 5.12265 36.8058 5.08345L36.2978 4.57434C36.1191 4.75353 36.0293 4.98058 36.0293 5.23209H36.7476ZM36.815 5.07385C36.8565 5.02915 36.8954 5.01249 36.9542 5.01249V4.29249C36.6944 4.29249 36.4651 4.39344 36.2886 4.58392L36.815 5.07385ZM36.9542 5.01249H41.995V4.29249H36.9542V5.01249ZM41.995 5.01249C42.0476 5.01249 42.0769 5.02656 42.1081 5.06047L42.636 4.5721C42.4661 4.38763 42.244 4.29249 41.995 4.29249V5.01249ZM42.1285 5.08082C42.1624 5.11213 42.1764 5.14158 42.1764 5.19429H42.8947C42.8947 4.94461 42.7998 4.72204 42.6157 4.55176L42.1285 5.08082ZM42.1764 5.19429C42.1764 5.24701 42.1624 5.27646 42.1285 5.30776L42.6157 5.83682C42.7998 5.66653 42.8947 5.44398 42.8947 5.19429H42.1764ZM42.1181 5.31774C42.0893 5.34661 42.057 5.36349 41.995 5.36349V6.08349C42.2347 6.08349 42.4538 5.99958 42.626 5.82685L42.1181 5.31774ZM41.995 5.36349H37.5324V6.08349H41.995V5.36349ZM37.1732 5.72349V8.50809H37.8916V5.72349H37.1732ZM37.5324 8.86809H41.5425V8.14809H37.5324V8.86809ZM41.5425 8.86809C41.595 8.86809 41.6243 8.88216 41.6556 8.91607L42.1834 8.42772C42.0136 8.24323 41.7915 8.14809 41.5425 8.14809V8.86809ZM41.6759 8.93642C41.7098 8.96773 41.7238 8.99718 41.7238 9.04989H42.4422C42.4422 8.80021 42.3472 8.57766 42.1632 8.40736L41.6759 8.93642ZM41.7238 9.04989C41.7238 9.10261 41.7098 9.13206 41.6759 9.16336L42.1632 9.69242C42.3472 9.52213 42.4422 9.29958 42.4422 9.04989H41.7238ZM41.6655 9.17334C41.6368 9.20221 41.6045 9.21909 41.5425 9.21909V9.93909C41.7821 9.93909 42.0012 9.85518 42.1735 9.68245L41.6655 9.17334ZM41.5425 9.21909H37.5324V9.93909H41.5425V9.21909ZM37.1732 9.57909V12.3763H37.8916V9.57909H37.1732ZM37.5324 12.7363H41.995V12.0163H37.5324V12.7363ZM41.995 12.7363C42.0476 12.7363 42.0769 12.7503 42.1081 12.7843L42.636 12.2959C42.4661 12.1114 42.244 12.0163 41.995 12.0163V12.7363ZM42.1285 12.8046C42.1624 12.8359 42.1764 12.8654 42.1764 12.9181H42.8947C42.8947 12.6684 42.7998 12.4459 42.6157 12.2756L42.1285 12.8046ZM42.1764 12.9181C42.1764 12.9708 42.1624 13.0003 42.1285 13.0316L42.6157 13.5606C42.7998 13.3903 42.8947 13.1678 42.8947 12.9181H42.1764ZM42.1181 13.0416C42.0893 13.0704 42.057 13.0873 41.995 13.0873V13.8073C42.2347 13.8073 42.4538 13.7234 42.626 13.5506L42.1181 13.0416ZM41.995 13.0873H36.9542V13.8073H41.995V13.0873ZM47.2583 12.9307L46.9262 13.068L46.9288 13.0741L46.9316 13.0802L47.2583 12.9307ZM44.1533 5.38329L43.817 5.5097L43.8191 5.51515L43.8212 5.52052L44.1533 5.38329ZM44.2665 4.75329L44.5204 5.00785L44.5255 5.00276L44.5303 4.99747L44.2665 4.75329ZM44.9956 4.70289L44.7681 4.98152L44.7817 4.99267L44.7963 5.00242L44.9956 4.70289ZM45.2218 4.98009L45.5551 4.8461L45.5536 4.84216L45.5519 4.83828L45.2218 4.98009ZM48.1759 12.3637L47.8425 12.4977L48.1759 13.3309L48.5092 12.4977L48.1759 12.3637ZM51.13 4.98009L50.7999 4.83828L50.7982 4.84216L50.7966 4.8461L51.13 4.98009ZM51.3437 4.70289L51.5549 4.99404L51.5571 4.99248L51.5592 4.99089L51.3437 4.70289ZM52.0854 4.75329L51.8214 4.99747L51.8263 5.00276L51.8314 5.00785L52.0854 4.75329ZM52.1985 5.38329L52.5305 5.52052L52.5328 5.51515L52.5348 5.5097L52.1985 5.38329ZM49.0936 12.9307L49.4203 13.0802L49.4231 13.0741L49.4256 13.068L49.0936 12.9307ZM48.0377 13.1503C47.9378 13.1503 47.8631 13.1239 47.7991 13.0762C47.7307 13.0255 47.6554 12.9357 47.585 12.7812L46.9316 13.0802C47.0372 13.3122 47.1796 13.5121 47.3711 13.6545C47.5668 13.8001 47.7939 13.8703 48.0377 13.8703V13.1503ZM47.5903 12.7934L44.4853 5.24605L43.8212 5.52052L46.9262 13.068L47.5903 12.7934ZM44.4896 5.25688C44.4804 5.23224 44.4748 5.20386 44.4748 5.16909H43.7564C43.7564 5.28553 43.776 5.39995 43.817 5.5097L44.4896 5.25688ZM44.4748 5.16909C44.4748 5.06414 44.5024 5.02586 44.5204 5.00785L44.0124 4.49874C43.8294 4.68232 43.7564 4.92124 43.7564 5.16909H44.4748ZM44.5303 4.99747C44.5502 4.97589 44.5852 4.94949 44.6813 4.94949V4.22949C44.4254 4.22949 44.1837 4.31229 44.0025 4.5091L44.5303 4.99747ZM44.6813 4.94949C44.7143 4.94949 44.739 4.95766 44.7681 4.98152L45.2229 4.42426C45.0676 4.29692 44.8829 4.22949 44.6813 4.22949V4.94949ZM44.7963 5.00242C44.8356 5.02867 44.8672 5.0647 44.8916 5.1219L45.5519 4.83828C45.4758 4.66028 45.3566 4.51152 45.1948 4.40335L44.7963 5.00242ZM44.8884 5.11408L47.8425 12.4977L48.5092 12.2296L45.5551 4.8461L44.8884 5.11408ZM48.5092 12.4977L51.4633 5.11408L50.7966 4.8461L47.8425 12.2296L48.5092 12.4977ZM51.4601 5.1219C51.488 5.05658 51.5212 5.01867 51.5549 4.99404L51.1324 4.41175C50.9819 4.52151 50.8725 4.6684 50.7999 4.83828L51.4601 5.1219ZM51.5592 4.99089C51.6023 4.95848 51.6367 4.94949 51.6706 4.94949V4.22949C51.4698 4.22949 51.2863 4.2961 51.1282 4.41489L51.5592 4.99089ZM51.6706 4.94949C51.7667 4.94949 51.8016 4.97589 51.8214 4.99747L52.3493 4.5091C52.168 4.31229 51.9264 4.22949 51.6706 4.22949V4.94949ZM51.8314 5.00785C51.8494 5.02586 51.8771 5.06414 51.8771 5.16909H52.5954C52.5954 4.92124 52.5225 4.68232 52.3393 4.49874L51.8314 5.00785ZM51.8771 5.16909C51.8771 5.20386 51.8715 5.23224 51.8623 5.25688L52.5348 5.5097C52.5759 5.39995 52.5954 5.28553 52.5954 5.16909H51.8771ZM51.8664 5.24605L48.7615 12.7934L49.4256 13.068L52.5305 5.52052L51.8664 5.24605ZM48.7669 12.7812C48.6965 12.9357 48.6211 13.0255 48.5527 13.0762C48.4886 13.1239 48.4141 13.1503 48.3142 13.1503V13.8703C48.558 13.8703 48.785 13.8001 48.9807 13.6545C49.1721 13.5121 49.3147 13.3122 49.4203 13.0802L48.7669 12.7812ZM48.3142 13.1503H48.0377V13.8703H48.3142V13.1503ZM53.324 13.0063L53.1169 13.3004L53.1335 13.3122L53.1512 13.3219L53.324 13.0063ZM53.2486 12.2377L53.5133 12.4809L53.2486 12.2377ZM53.8269 12.1369L53.6809 12.4658L53.6819 12.4663L53.6828 12.4668L53.8269 12.1369ZM56.605 11.1793L56.4495 11.5038L56.452 11.505L56.4544 11.5062L56.605 11.1793ZM55.5616 10.8391L55.6515 10.4906L55.6481 10.4897L55.6445 10.4888L55.5616 10.8391ZM54.3297 10.4737L54.1978 10.8086L54.1992 10.8091L54.2008 10.8097L54.3297 10.4737ZM53.5 9.90669L53.2291 10.1431L53.2332 10.1478L53.2374 10.1523L53.5 9.90669ZM53.7892 7.44969L53.5545 7.17711L53.5532 7.17826L53.5519 7.17944L53.7892 7.44969ZM57.4347 7.21029L57.3106 7.54818L57.3232 7.55278L57.3359 7.55644L57.4347 7.21029ZM57.6986 7.39929L57.3956 7.59256L57.4016 7.602L57.4081 7.61103L57.6986 7.39929ZM57.6484 8.04189L57.3943 7.78734L57.3888 7.79287L57.3835 7.79863L57.6484 8.04189ZM57.133 8.16789L57.0264 8.51172L57.0361 8.5147L57.0458 8.51714L57.133 8.16789ZM54.6314 8.19309L54.8235 8.49723L54.8247 8.49642L54.8261 8.4956L54.6314 8.19309ZM55.6999 9.71769L55.7884 9.36879L55.7827 9.36736L55.7771 9.36613L55.6999 9.71769ZM56.9067 10.0957L56.7716 10.4293L56.7756 10.4309L56.7795 10.4324L56.9067 10.0957ZM57.6986 10.6627L57.4234 10.894L57.4256 10.8966L57.4277 10.8991L57.6986 10.6627ZM57.3969 13.0441L57.1685 12.7662L57.1672 12.7674L57.1659 12.7684L57.3969 13.0441ZM55.6119 13.2133C54.8299 13.2133 54.1274 13.0376 53.4968 12.6907L53.1512 13.3219C53.895 13.7311 54.7177 13.9333 55.6119 13.9333V13.2133ZM53.5312 12.7122C53.4851 12.6795 53.4695 12.6512 53.4695 12.5905H52.7512C52.7512 12.8826 52.878 13.1314 53.1169 13.3004L53.5312 12.7122ZM53.4695 12.5905C53.4695 12.5479 53.4806 12.5167 53.5133 12.4809L52.9838 11.9944C52.8321 12.1603 52.7512 12.3643 52.7512 12.5905H53.4695ZM53.5133 12.4809C53.5342 12.4581 53.5537 12.4465 53.6006 12.4465V11.7265C53.3625 11.7265 53.1473 11.8156 52.9838 11.9944L53.5133 12.4809ZM53.6006 12.4465C53.6212 12.4465 53.6471 12.4508 53.6809 12.4658L53.9727 11.8079C53.8557 11.7558 53.7309 11.7265 53.6006 11.7265V12.4465ZM53.6828 12.4668C53.9684 12.5919 54.2555 12.691 54.5442 12.7633L54.7184 12.0649C54.4708 12.0028 54.2216 11.9171 53.9708 11.8071L53.6828 12.4668ZM54.5442 12.7633C54.8462 12.839 55.1778 12.8749 55.5365 12.8749V12.1549C55.2246 12.1549 54.9528 12.1236 54.7184 12.0649L54.5442 12.7633ZM55.5365 12.8749C56.0283 12.8749 56.4588 12.7982 56.7764 12.5946C57.1215 12.3733 57.291 12.0298 57.291 11.6203H56.5727C56.5727 11.8071 56.5096 11.911 56.3894 11.988C56.2419 12.0825 55.9748 12.1549 55.5365 12.1549V12.8749ZM57.291 11.6203C57.291 11.4509 57.2415 11.2896 57.1383 11.1505C57.0386 11.0158 56.9024 10.9204 56.7555 10.8524L56.4544 11.5062C56.5254 11.539 56.5527 11.5675 56.5618 11.5798C56.5676 11.5877 56.5727 11.5965 56.5727 11.6203H57.291ZM56.7604 10.8547C56.5171 10.7377 56.1404 10.6173 55.6515 10.4906L55.4716 11.1876C55.9549 11.3129 56.2737 11.4192 56.4495 11.5038L56.7604 10.8547ZM55.6445 10.4888C55.1594 10.3734 54.7654 10.256 54.4585 10.1377L54.2008 10.8097C54.5476 10.9434 54.9749 11.0696 55.4787 11.1894L55.6445 10.4888ZM54.4615 10.1388C54.193 10.0326 53.961 9.87414 53.7626 9.66105L53.2374 10.1523C53.5083 10.4432 53.8295 10.6628 54.1978 10.8086L54.4615 10.1388ZM53.7708 9.67026C53.6132 9.48882 53.5198 9.23881 53.5198 8.88609H52.8015C52.8015 9.37338 52.9342 9.80377 53.2291 10.1431L53.7708 9.67026ZM53.5198 8.88609C53.5198 8.39556 53.6892 8.01734 54.0263 7.71994L53.5519 7.17944C53.051 7.62124 52.8015 8.20063 52.8015 8.88609H53.5198ZM54.0237 7.72227C54.3642 7.42786 54.8763 7.25529 55.6119 7.25529V6.53529C54.7718 6.53529 54.0688 6.73231 53.5545 7.17711L54.0237 7.72227ZM55.6119 7.25529C56.2176 7.25529 56.7829 7.3537 57.3106 7.54818L57.5586 6.87241C56.9466 6.64688 56.2967 6.53529 55.6119 6.53529V7.25529ZM57.3359 7.55644C57.3793 7.56888 57.3896 7.58328 57.3956 7.59256L58.0017 7.20602C57.8902 7.03051 57.7245 6.9189 57.5333 6.86414L57.3359 7.55644ZM57.4081 7.61103C57.4367 7.65046 57.44 7.67432 57.44 7.68909H58.1584C58.1584 7.50226 58.0946 7.33292 57.9891 7.18755L57.4081 7.61103ZM57.44 7.68909C57.44 7.72177 57.4321 7.7495 57.3943 7.78734L57.9023 8.29645C58.0657 8.13268 58.1584 7.92522 58.1584 7.68909H57.44ZM57.3835 7.79863C57.3627 7.8214 57.3432 7.83309 57.2964 7.83309V8.55309C57.5344 8.55309 57.7495 8.46398 57.9131 8.28516L57.3835 7.79863ZM57.2964 7.83309C57.2983 7.83309 57.2931 7.8332 57.2787 7.83098C57.2647 7.82882 57.2454 7.82499 57.22 7.81864L57.0458 8.51714C57.1255 8.53711 57.2123 8.55309 57.2964 8.55309V7.83309ZM57.2394 7.82407C56.7217 7.66305 56.2081 7.58109 55.6999 7.58109V8.30109C56.1302 8.30109 56.5719 8.37033 57.0264 8.51172L57.2394 7.82407ZM55.6999 7.58109C55.2084 7.58109 54.7755 7.67145 54.4366 7.89058L54.8261 8.4956C55.0067 8.37873 55.2861 8.30109 55.6999 8.30109V7.58109ZM54.4391 7.88895C54.1016 8.10326 53.8951 8.41959 53.8951 8.82309H54.6134C54.6134 8.70579 54.6582 8.60212 54.8235 8.49723L54.4391 7.88895ZM53.8951 8.82309C53.8951 9.00702 53.9386 9.18552 54.0393 9.34396C54.1392 9.50154 54.2818 9.61738 54.4456 9.69949L54.7668 9.0555C54.696 9.02 54.6625 8.98465 54.6453 8.95742C54.6285 8.93107 54.6134 8.89117 54.6134 8.82309H53.8951ZM54.4456 9.69949C54.7209 9.8375 55.1207 9.95842 55.6226 10.0693L55.7771 9.36613C55.2901 9.25856 54.9607 9.15268 54.7668 9.0555L54.4456 9.69949ZM55.6113 10.0666C56.0973 10.1904 56.4824 10.3118 56.7716 10.4293L57.0416 9.76207C56.7107 9.62763 56.2913 9.49696 55.7884 9.36879L55.6113 10.0666ZM56.7795 10.4324C57.0307 10.5277 57.2441 10.6798 57.4234 10.894L57.9738 10.4314C57.7173 10.1248 57.4027 9.89893 57.0337 9.75898L56.7795 10.4324ZM57.4277 10.8991C57.5832 11.0781 57.6789 11.3349 57.6789 11.7085H58.3972C58.3972 11.2085 58.2665 10.7681 57.9694 10.4263L57.4277 10.8991ZM57.6789 11.7085C57.6789 12.1346 57.5162 12.4792 57.1685 12.7662L57.6252 13.322C58.1324 12.9033 58.3972 12.3576 58.3972 11.7085H57.6789ZM57.1659 12.7684C56.8337 13.0482 56.3325 13.2133 55.6119 13.2133V13.9333C56.4332 13.9333 57.1222 13.7456 57.6279 13.3197L57.1659 12.7684Z" fill="white"/>
<path d="M25.2283 25.3681C25.0691 25.3681 24.935 25.3135 24.826 25.2043C24.7171 25.0951 24.6626 24.9607 24.6626 24.8011V17.2789C24.6626 17.0521 24.7422 16.8589 24.9014 16.6993C25.0607 16.5313 25.2534 16.4473 25.4797 16.4473H25.6431C25.9113 16.4473 26.1417 16.5733 26.3345 16.8253L31.1742 23.8309V17.0269C31.1742 16.8673 31.2287 16.7329 31.3376 16.6237C31.4466 16.5061 31.5807 16.4473 31.7399 16.4473C31.8991 16.4473 32.0332 16.5061 32.1421 16.6237C32.2595 16.7329 32.3181 16.8673 32.3181 17.0269V24.5491C32.3181 24.7759 32.2343 24.9691 32.0667 25.1287C31.9075 25.2883 31.7147 25.3681 31.4885 25.3681H31.3376C31.2035 25.3681 31.0778 25.3387 30.9605 25.2799C30.8432 25.2127 30.7468 25.1287 30.6714 25.0279L25.8065 17.9845V24.8011C25.8065 24.9607 25.7479 25.0951 25.6305 25.2043C25.5216 25.3135 25.3875 25.3681 25.2283 25.3681ZM37.8122 25.4311C37.1669 25.4311 36.6013 25.2925 36.1153 25.0153C35.6292 24.7381 35.2521 24.3475 34.984 23.8435C34.7242 23.3311 34.5943 22.7473 34.5943 22.0921C34.5943 21.4369 34.7242 20.8573 34.984 20.3533C35.2521 19.8409 35.6292 19.4461 36.1153 19.1689C36.6013 18.8917 37.1669 18.7531 37.8122 18.7531C38.4492 18.7531 39.0106 18.8917 39.4967 19.1689C39.9828 19.4461 40.3599 19.8409 40.6281 20.3533C40.8962 20.8573 41.0303 21.4369 41.0303 22.0921C41.0303 22.7473 40.8962 23.3311 40.6281 23.8435C40.3599 24.3475 39.9828 24.7381 39.4967 25.0153C39.0106 25.2925 38.4492 25.4311 37.8122 25.4311ZM37.8122 24.3853C38.1558 24.3853 38.4827 24.3055 38.7927 24.1459C39.1112 23.9863 39.371 23.7343 39.5721 23.3899C39.7816 23.0455 39.8864 22.6087 39.8864 22.0795C39.8864 21.5587 39.7816 21.1261 39.5721 20.7817C39.371 20.4373 39.1112 20.1895 38.7927 20.0383C38.4827 19.8787 38.1558 19.7989 37.8122 19.7989C37.4603 19.7989 37.125 19.8787 36.8066 20.0383C36.4966 20.1895 36.241 20.4373 36.0399 20.7817C35.8388 21.1261 35.7382 21.5587 35.7382 22.0795C35.7382 22.6087 35.8388 23.0455 36.0399 23.3899C36.241 23.7343 36.4966 23.9863 36.8066 24.1459C37.125 24.3055 37.4603 24.3853 37.8122 24.3853ZM43.826 25.3681C43.6668 25.3681 43.5327 25.3135 43.4238 25.2043C43.3148 25.0951 43.2604 24.9607 43.2604 24.8011V19.3957C43.2604 19.2361 43.3148 19.1017 43.4238 18.9925C43.5327 18.8749 43.6668 18.8161 43.826 18.8161C43.9853 18.8161 44.1194 18.8749 44.2283 18.9925C44.3456 19.1017 44.4043 19.2361 44.4043 19.3957V19.9375C44.9909 19.1479 45.6488 18.7531 46.3779 18.7531H46.4407C46.6 18.7531 46.7299 18.8077 46.8304 18.9169C46.9394 19.0261 46.9939 19.1605 46.9939 19.3201C46.9939 19.4797 46.9394 19.6099 46.8304 19.7107C46.7215 19.8115 46.5832 19.8619 46.4156 19.8619H46.3527C45.9505 19.8619 45.5817 19.9627 45.2465 20.1643C44.9113 20.3575 44.6306 20.6263 44.4043 20.9707V24.8011C44.4043 24.9607 44.3456 25.0951 44.2283 25.2043C44.1194 25.3135 43.9853 25.3681 43.826 25.3681ZM50.9136 25.4311C49.6901 25.4311 49.0783 24.8767 49.0783 23.7679V19.8619H48.1858C48.1187 19.8619 48.0601 19.8409 48.0098 19.7989C47.9679 19.7485 47.947 19.6897 47.947 19.6225C47.947 19.5385 47.9847 19.4671 48.0601 19.4083L49.7697 17.7325C49.8451 17.6569 49.9164 17.6191 49.9834 17.6191C50.0504 17.6191 50.1049 17.6443 50.1468 17.6947C50.1971 17.7451 50.2222 17.8039 50.2222 17.8711V18.8791H51.6427C51.7852 18.8791 51.9025 18.9253 51.9947 19.0177C52.0869 19.1101 52.133 19.2277 52.133 19.3705C52.133 19.5049 52.0869 19.6225 51.9947 19.7233C51.9025 19.8157 51.7852 19.8619 51.6427 19.8619H50.2222V23.6671C50.2222 23.9947 50.2977 24.2047 50.4485 24.2971C50.6077 24.3811 50.8047 24.4231 51.0393 24.4231C51.2069 24.4231 51.3746 24.3979 51.5422 24.3475C51.5757 24.3391 51.6092 24.3307 51.6427 24.3223C51.6846 24.3139 51.7349 24.3097 51.7936 24.3097C51.9109 24.3097 52.0157 24.3559 52.1078 24.4483C52.2 24.5323 52.2461 24.6373 52.2461 24.7633C52.2461 24.9565 52.1497 25.1035 51.957 25.2043C51.6302 25.3555 51.2824 25.4311 50.9136 25.4311ZM56.9098 25.4311C55.8874 25.4311 55.0871 25.1413 54.5088 24.5617C53.939 23.9737 53.654 23.1505 53.654 22.0921C53.654 21.4957 53.763 20.9455 53.9809 20.4415C54.1988 19.9375 54.534 19.5301 54.9865 19.2193C55.4391 18.9085 55.9964 18.7531 56.6584 18.7531C57.2786 18.7531 57.8149 18.9001 58.2675 19.1941C58.72 19.4797 59.0636 19.8661 59.2983 20.3533C59.5329 20.8321 59.6502 21.3571 59.6502 21.9283C59.6502 22.0879 59.5958 22.2223 59.4868 22.3315C59.3863 22.4407 59.248 22.4953 59.072 22.4953H54.8105C54.8776 23.0833 55.0955 23.5411 55.4642 23.8687C55.8329 24.1963 56.3483 24.3601 57.0104 24.3601C57.3624 24.3601 57.6683 24.3265 57.9281 24.2593C58.1962 24.1921 58.456 24.0955 58.7074 23.9695C58.7745 23.9359 58.8499 23.9191 58.9337 23.9191C59.0678 23.9191 59.1851 23.9653 59.2857 24.0577C59.3863 24.1501 59.4365 24.2677 59.4365 24.4105C59.4365 24.5953 59.3276 24.7507 59.1097 24.8767C58.7829 25.0615 58.4602 25.2001 58.1418 25.2925C57.8233 25.3849 57.4127 25.4311 56.9098 25.4311ZM58.5189 21.5629C58.4937 21.1513 58.3848 20.8069 58.192 20.5297C58.0077 20.2525 57.7772 20.0509 57.5007 19.9249C57.2241 19.7905 56.9434 19.7233 56.6584 19.7233C56.3735 19.7233 56.0927 19.7905 55.8162 19.9249C55.5396 20.0509 55.3092 20.2525 55.1248 20.5297C54.9404 20.8069 54.8357 21.1513 54.8105 21.5629H58.5189Z" fill="white"/>
<path d="M24.8258 25.2043L25.0797 24.9498L24.8258 25.2043ZM24.9012 16.6993L25.1552 16.9538L25.1585 16.9506L25.1616 16.9472L24.9012 16.6993ZM26.3343 16.8253L26.6295 16.6203L26.6246 16.6131L26.6193 16.6063L26.3343 16.8253ZM31.174 23.8309L30.8788 24.0358L31.5332 24.9831V23.8309H31.174ZM31.3374 16.6237L31.5913 16.8782L31.5961 16.8735L31.6006 16.8686L31.3374 16.6237ZM32.1419 16.6237L31.8788 16.8686L31.8878 16.8784L31.8976 16.8874L32.1419 16.6237ZM32.0665 25.1287L31.8192 24.8677L31.8158 24.8709L31.8126 24.8742L32.0665 25.1287ZM30.9603 25.2799L30.7821 25.5925L30.7908 25.5974L30.7996 25.6018L30.9603 25.2799ZM30.6712 25.0279L30.3758 25.2328L30.3798 25.2384L30.3838 25.2439L30.6712 25.0279ZM25.8063 17.9845L26.1017 17.7795L25.4472 16.832V17.9845H25.8063ZM25.6303 25.2043L25.386 24.9405L25.3811 24.945L25.3764 24.9498L25.6303 25.2043ZM25.2281 25.0081C25.1605 25.0081 25.1189 24.9889 25.0797 24.9498L24.5719 25.4588C24.7506 25.6381 24.9771 25.7281 25.2281 25.7281V25.0081ZM25.0797 24.9498C25.0407 24.9105 25.0215 24.8688 25.0215 24.8011H24.3032C24.3032 25.0526 24.393 25.2796 24.5719 25.4588L25.0797 24.9498ZM25.0215 24.8011V17.2789H24.3032V24.8011H25.0215ZM25.0215 17.2789C25.0215 17.147 25.0637 17.0456 25.1552 16.9538L24.6473 16.4448C24.4203 16.6722 24.3032 16.9572 24.3032 17.2789H25.0215ZM25.1616 16.9472C25.2548 16.849 25.354 16.8073 25.4795 16.8073V16.0873C25.1524 16.0873 24.8662 16.2135 24.6408 16.4514L25.1616 16.9472ZM25.4795 16.8073H25.6429V16.0873H25.4795V16.8073ZM25.6429 16.8073C25.7784 16.8073 25.9106 16.8631 26.0492 17.0443L26.6193 16.6063C26.3725 16.2835 26.0437 16.0873 25.6429 16.0873V16.8073ZM26.0391 17.0302L30.8788 24.0358L31.4692 23.6259L26.6295 16.6203L26.0391 17.0302ZM31.5332 23.8309V17.0269H30.8148V23.8309H31.5332ZM31.5332 17.0269C31.5332 16.9592 31.5523 16.9174 31.5913 16.8782L31.0835 16.3692C30.9046 16.5483 30.8148 16.7754 30.8148 17.0269H31.5332ZM31.6006 16.8686C31.642 16.824 31.6809 16.8073 31.7397 16.8073V16.0873C31.48 16.0873 31.2507 16.1882 31.0743 16.3788L31.6006 16.8686ZM31.7397 16.8073C31.7985 16.8073 31.8374 16.824 31.8788 16.8686L32.4051 16.3788C32.2286 16.1882 31.9993 16.0873 31.7397 16.0873V16.8073ZM31.8976 16.8874C31.9421 16.929 31.9588 16.9681 31.9588 17.0269H32.6771C32.6771 16.7666 32.5764 16.5368 32.3863 16.3599L31.8976 16.8874ZM31.9588 17.0269V24.5491H32.6771V17.0269H31.9588ZM31.9588 24.5491C31.9588 24.6748 31.9171 24.7744 31.8192 24.8677L32.3139 25.3897C32.5511 25.1638 32.6771 24.8769 32.6771 24.5491H31.9588ZM31.8126 24.8742C31.721 24.9658 31.6198 25.0081 31.4883 25.0081V25.7281C31.8092 25.7281 32.0936 25.6107 32.3204 25.3832L31.8126 24.8742ZM31.4883 25.0081H31.3374V25.7281H31.4883V25.0081ZM31.3374 25.0081C31.2578 25.0081 31.1873 24.9912 31.121 24.9579L30.7996 25.6018C30.968 25.6862 31.1488 25.7281 31.3374 25.7281V25.0081ZM31.1384 24.9673C31.0605 24.9226 31.0023 24.8704 30.9585 24.8119L30.3838 25.2439C30.4909 25.3869 30.6254 25.5027 30.7821 25.5925L31.1384 24.9673ZM30.9665 24.8229L26.1017 17.7795L25.511 18.1894L30.3758 25.2328L30.9665 24.8229ZM25.4472 17.9845V24.8011H26.1655V17.9845H25.4472ZM25.4472 24.8011C25.4472 24.86 25.4305 24.899 25.386 24.9405L25.8747 25.468C26.0648 25.2912 26.1655 25.0615 26.1655 24.8011H25.4472ZM25.3764 24.9498C25.3373 24.9889 25.2956 25.0081 25.2281 25.0081V25.7281C25.479 25.7281 25.7055 25.6381 25.8843 25.4588L25.3764 24.9498ZM36.1151 25.0153L36.2926 24.7024L36.1151 25.0153ZM34.9837 23.8435L34.6635 24.0066L34.6652 24.0098L34.6667 24.0129L34.9837 23.8435ZM34.9837 20.3533L34.6656 20.186L34.6652 20.1871L34.6646 20.188L34.9837 20.3533ZM36.1151 19.1689L36.2926 19.4818L36.1151 19.1689ZM39.4965 19.1689L39.3189 19.4818L39.4965 19.1689ZM40.6278 20.3533L40.3099 20.5206L40.3104 20.5216L40.311 20.5227L40.6278 20.3533ZM40.6278 23.8435L40.9447 24.0129L40.9453 24.0118L40.9459 24.0108L40.6278 23.8435ZM39.4965 25.0153L39.3189 24.7024L39.4965 25.0153ZM38.7925 24.1459L38.632 23.8239L38.6302 23.8248L38.6285 23.8256L38.7925 24.1459ZM39.5719 23.3899L39.2653 23.2024L39.2636 23.2052L39.262 23.2081L39.5719 23.3899ZM39.5719 20.7817L39.262 20.9636L39.2636 20.9664L39.2653 20.9691L39.5719 20.7817ZM38.7925 20.0383L38.6285 20.3586L38.6337 20.3612L38.6388 20.3636L38.7925 20.0383ZM36.8064 20.0383L36.9636 20.362L36.9652 20.3612L36.967 20.3602L36.8064 20.0383ZM36.0397 20.7817L35.7296 20.5999L36.0397 20.7817ZM36.0397 23.3899L35.7296 23.5718L36.0397 23.3899ZM36.8064 24.1459L36.6424 24.4662L36.644 24.467L36.6458 24.4678L36.8064 24.1459ZM37.812 25.0711C37.2194 25.0711 36.7167 24.9442 36.2926 24.7024L35.9374 25.3282C36.4855 25.6407 37.1142 25.7911 37.812 25.7911V25.0711ZM36.2926 24.7024C35.8668 24.4596 35.5374 24.1192 35.3006 23.674L34.6667 24.0129C34.9663 24.5757 35.3912 25.0166 35.9374 25.3282L36.2926 24.7024ZM35.3039 23.6804C35.0731 23.2252 34.9532 22.6986 34.9532 22.0921H34.2349C34.2349 22.796 34.3747 23.437 34.6635 24.0066L35.3039 23.6804ZM34.9532 22.0921C34.9532 21.4855 35.0732 20.9641 35.3028 20.5185L34.6646 20.188C34.3746 20.7505 34.2349 21.3883 34.2349 22.0921H34.9532ZM35.3017 20.5206C35.539 20.0671 35.8684 19.7238 36.2926 19.4818L35.9374 18.856C35.3896 19.1684 34.9647 19.6147 34.6656 20.186L35.3017 20.5206ZM36.2926 19.4818C36.7167 19.2399 37.2194 19.1131 37.812 19.1131V18.3931C37.1142 18.3931 36.4855 18.5434 35.9374 18.856L36.2926 19.4818ZM37.812 19.1131C38.3955 19.1131 38.8942 19.2396 39.3189 19.4818L39.6742 18.856C39.1268 18.5438 38.5024 18.3931 37.812 18.3931V19.1131ZM39.3189 19.4818C39.7432 19.7238 40.0725 20.0671 40.3099 20.5206L40.9459 20.186C40.6469 19.6147 40.222 19.1684 39.6742 18.856L39.3189 19.4818ZM40.311 20.5227C40.5476 20.9673 40.6709 21.4872 40.6709 22.0921H41.3893C41.3893 21.3866 41.2445 20.7472 40.9447 20.1838L40.311 20.5227ZM40.6709 22.0921C40.6709 22.6968 40.5476 23.2219 40.3099 23.6762L40.9459 24.0108C41.2445 23.4403 41.3893 22.7978 41.3893 22.0921H40.6709ZM40.311 23.674C40.0741 24.1192 39.7448 24.4596 39.3189 24.7024L39.6742 25.3282C40.2204 25.0166 40.6453 24.5757 40.9447 24.0129L40.311 23.674ZM39.3189 24.7024C38.8942 24.9446 38.3955 25.0711 37.812 25.0711V25.7911C38.5024 25.7911 39.1268 25.6404 39.6742 25.3282L39.3189 24.7024ZM37.812 24.7453C38.2136 24.7453 38.5966 24.6514 38.9567 24.4662L38.6285 23.8256C38.3685 23.9595 38.0978 24.0253 37.812 24.0253V24.7453ZM38.9532 24.4678C39.3411 24.2734 39.65 23.969 39.8819 23.5718L39.262 23.2081C39.0917 23.4996 38.8809 23.6991 38.632 23.8239L38.9532 24.4678ZM39.8786 23.5773C40.1316 23.1614 40.2453 22.6546 40.2453 22.0795H39.527C39.527 22.5627 39.4314 22.9296 39.2653 23.2024L39.8786 23.5773ZM40.2453 22.0795C40.2453 21.5115 40.1311 21.0093 39.8786 20.5942L39.2653 20.9691C39.4318 21.2428 39.527 21.6058 39.527 22.0795H40.2453ZM39.8819 20.5999C39.6493 20.2014 39.3383 19.8991 38.9464 19.713L38.6388 20.3636C38.8838 20.4799 39.0924 20.6732 39.262 20.9636L39.8819 20.5999ZM38.9567 19.718C38.5966 19.5327 38.2136 19.4389 37.812 19.4389V20.1589C38.0978 20.1589 38.3685 20.2246 38.6285 20.3586L38.9567 19.718ZM37.812 19.4389C37.4037 19.4389 37.0135 19.532 36.6458 19.7163L36.967 20.3602C37.2362 20.2254 37.5166 20.1589 37.812 20.1589V19.4389ZM36.6493 19.7145C36.2659 19.9015 35.9609 20.2038 35.7296 20.5999L36.3496 20.9636C36.5206 20.6708 36.7268 20.4775 36.9636 20.362L36.6493 19.7145ZM35.7296 20.5999C35.4879 21.0138 35.3788 21.5138 35.3788 22.0795H36.0971C36.0971 21.6036 36.1891 21.2384 36.3496 20.9636L35.7296 20.5999ZM35.3788 22.0795C35.3788 22.6524 35.4874 23.1571 35.7296 23.5718L36.3496 23.2081C36.1896 22.934 36.0971 22.565 36.0971 22.0795H35.3788ZM35.7296 23.5718C35.9603 23.9666 36.2632 24.271 36.6424 24.4662L36.9705 23.8256C36.7295 23.7016 36.5212 23.502 36.3496 23.2081L35.7296 23.5718ZM36.6458 24.4678C37.0135 24.6522 37.4037 24.7453 37.812 24.7453V24.0253C37.5166 24.0253 37.2362 23.9588 36.967 23.8239L36.6458 24.4678ZM43.4236 25.2043L43.6776 24.9498L43.4236 25.2043ZM43.4236 18.9925L43.6776 19.247L43.6823 19.2423L43.6868 19.2374L43.4236 18.9925ZM44.2281 18.9925L43.9649 19.2374L43.9739 19.2472L43.9837 19.2562L44.2281 18.9925ZM44.4041 19.9375H44.0449V21.0237L44.6921 20.1525L44.4041 19.9375ZM46.8302 18.9169L46.5664 19.1611L46.5711 19.1664L46.5763 19.1714L46.8302 18.9169ZM46.8302 19.7107L46.5866 19.4462L46.8302 19.7107ZM45.2463 20.1643L45.4254 20.4764L45.4283 20.4747L45.4312 20.473L45.2463 20.1643ZM44.4041 20.9707L44.1042 20.7727L44.0449 20.8628V20.9707H44.4041ZM44.2281 25.2043L43.9837 24.9405L43.9788 24.945L43.9742 24.9498L44.2281 25.2043ZM43.8258 25.0081C43.7583 25.0081 43.7166 24.9889 43.6776 24.9498L43.1696 25.4588C43.3484 25.6381 43.5749 25.7281 43.8258 25.7281V25.0081ZM43.6776 24.9498C43.6385 24.9105 43.6193 24.8688 43.6193 24.8011H42.901C42.901 25.0526 42.9909 25.2796 43.1696 25.4588L43.6776 24.9498ZM43.6193 24.8011V19.3957H42.901V24.8011H43.6193ZM43.6193 19.3957C43.6193 19.328 43.6385 19.2862 43.6776 19.247L43.1696 18.738C42.9909 18.9171 42.901 19.1442 42.901 19.3957H43.6193ZM43.6868 19.2374C43.7283 19.1928 43.7672 19.1761 43.8258 19.1761V18.4561C43.5662 18.4561 43.3369 18.557 43.1604 18.7476L43.6868 19.2374ZM43.8258 19.1761C43.8846 19.1761 43.9235 19.1928 43.9649 19.2374L44.4914 18.7476C44.3149 18.557 44.0856 18.4561 43.8258 18.4561V19.1761ZM43.9837 19.2562C44.0283 19.2978 44.0449 19.3368 44.0449 19.3957H44.7632C44.7632 19.1354 44.6626 18.9056 44.4726 18.7287L43.9837 19.2562ZM44.0449 19.3957V19.9375H44.7632V19.3957H44.0449ZM44.6921 20.1525C45.2365 19.4199 45.7988 19.1131 46.3777 19.1131V18.3931C45.4983 18.3931 44.745 18.876 44.116 19.7224L44.6921 20.1525ZM46.3777 19.1131H46.4405V18.3931H46.3777V19.1131ZM46.4405 19.1131C46.5078 19.1131 46.5392 19.1316 46.5664 19.1611L47.0942 18.6727C46.9201 18.4838 46.6917 18.3931 46.4405 18.3931V19.1131ZM46.5763 19.1714C46.6154 19.2106 46.6345 19.2524 46.6345 19.3201H47.3528C47.3528 19.0686 47.263 18.8415 47.0843 18.6624L46.5763 19.1714ZM46.6345 19.3201C46.6345 19.3875 46.616 19.419 46.5866 19.4462L47.0739 19.9752C47.2623 19.8008 47.3528 19.5718 47.3528 19.3201H46.6345ZM46.5866 19.4462C46.5528 19.4775 46.5054 19.5019 46.4154 19.5019V20.2219C46.6606 20.2219 46.8898 20.1456 47.0739 19.9752L46.5866 19.4462ZM46.4154 19.5019H46.3525V20.2219H46.4154V19.5019ZM46.3525 19.5019C45.8872 19.5019 45.4543 19.6194 45.0616 19.8556L45.4312 20.473C45.7088 20.306 46.0134 20.2219 46.3525 20.2219V19.5019ZM45.0673 19.8522C44.6804 20.0752 44.3593 20.3844 44.1042 20.7727L44.7041 21.1687C44.9015 20.8682 45.1419 20.6397 45.4254 20.4764L45.0673 19.8522ZM44.0449 20.9707V24.8011H44.7632V20.9707H44.0449ZM44.0449 24.8011C44.0449 24.86 44.0283 24.899 43.9837 24.9405L44.4726 25.468C44.6626 25.2912 44.7632 25.0615 44.7632 24.8011H44.0449ZM43.9742 24.9498C43.935 24.9889 43.8934 25.0081 43.8258 25.0081V25.7281C44.0768 25.7281 44.3033 25.6381 44.4821 25.4588L43.9742 24.9498ZM49.0781 19.8619H49.4373V19.5019H49.0781V19.8619ZM48.0096 19.7989L47.7336 20.0294L47.7545 20.0545L47.7796 20.0755L48.0096 19.7989ZM48.0599 19.4083L48.2803 19.6924L48.2964 19.68L48.3109 19.6657L48.0599 19.4083ZM49.7695 17.7325L50.0205 17.9899L50.022 17.9884L50.0234 17.987L49.7695 17.7325ZM50.1466 17.6947L49.8706 17.9252L49.8811 17.9377L49.8926 17.9492L50.1466 17.6947ZM50.222 18.8791H49.8629V19.2391H50.222V18.8791ZM51.9945 19.0177L51.7404 19.2722L51.9945 19.0177ZM51.9945 19.7233L52.2484 19.9778L52.2539 19.9723L52.2592 19.9665L51.9945 19.7233ZM50.222 19.8619V19.5019H49.8629V19.8619H50.222ZM50.4483 24.2971L50.2609 24.6043L50.2708 24.6103L50.2809 24.6157L50.4483 24.2971ZM51.5419 24.3475L51.4548 23.9983L51.4466 24.0003L51.4386 24.0027L51.5419 24.3475ZM51.6425 24.3223L51.572 23.9692L51.5636 23.9709L51.5554 23.9731L51.6425 24.3223ZM52.1076 24.4483L51.8536 24.7028L51.8597 24.7089L51.866 24.7147L52.1076 24.4483ZM51.9568 25.2043L52.1073 25.5312L52.1152 25.5274L52.1228 25.5235L51.9568 25.2043ZM50.9134 25.0711C50.3484 25.0711 49.9919 24.9423 49.7777 24.7483C49.5704 24.5604 49.4373 24.2569 49.4373 23.7679H48.7189C48.7189 24.3877 48.8916 24.9158 49.296 25.2823C49.6936 25.6426 50.2547 25.7911 50.9134 25.7911V25.0711ZM49.4373 23.7679V19.8619H48.7189V23.7679H49.4373ZM49.0781 19.5019H48.1856V20.2219H49.0781V19.5019ZM48.1856 19.5019C48.19 19.5019 48.1997 19.5027 48.212 19.5072C48.2245 19.5116 48.2338 19.5176 48.2394 19.5223L47.7796 20.0755C47.8961 20.1728 48.0366 20.2219 48.1856 20.2219V19.5019ZM48.2854 19.5684C48.2901 19.574 48.2962 19.5835 48.3006 19.596C48.3051 19.6082 48.3059 19.6179 48.3059 19.6225H47.5876C47.5876 19.7716 47.6365 19.9125 47.7336 20.0294L48.2854 19.5684ZM48.3059 19.6225C48.3059 19.6368 48.3021 19.6561 48.2924 19.6743C48.2835 19.6912 48.2754 19.6963 48.2803 19.6924L47.8393 19.1241C47.6903 19.2403 47.5876 19.4108 47.5876 19.6225H48.3059ZM48.3109 19.6657L50.0205 17.9899L49.5183 17.4751L47.8087 19.1509L48.3109 19.6657ZM50.0234 17.987C50.0434 17.967 50.0518 17.9632 50.0475 17.9656C50.0417 17.9686 50.019 17.9791 49.9832 17.9791V17.2591C49.7776 17.2591 49.6198 17.3733 49.5154 17.478L50.0234 17.987ZM49.9832 17.9791C49.9708 17.9791 49.9489 17.9766 49.9238 17.9648C49.8983 17.953 49.8807 17.9372 49.8706 17.9252L50.4224 17.4643C50.3104 17.3295 50.1538 17.2591 49.9832 17.2591V17.9791ZM49.8926 17.9492C49.8891 17.9457 49.8803 17.9356 49.873 17.9184C49.8655 17.9007 49.8629 17.8837 49.8629 17.8711H50.5812C50.5812 17.7021 50.5137 17.5536 50.4005 17.4402L49.8926 17.9492ZM49.8629 17.8711V18.8791H50.5812V17.8711H49.8629ZM50.222 19.2391H51.6425V18.5191H50.222V19.2391ZM51.6425 19.2391C51.6994 19.2391 51.7222 19.254 51.7404 19.2722L52.2484 18.7632C52.0822 18.5966 51.8705 18.5191 51.6425 18.5191V19.2391ZM51.7404 19.2722C51.7588 19.2906 51.7736 19.3134 51.7736 19.3705H52.4919C52.4919 19.142 52.4145 18.9296 52.2484 18.7632L51.7404 19.2722ZM51.7736 19.3705C51.7736 19.4131 51.7624 19.4443 51.7297 19.48L52.2592 19.9665C52.4109 19.8007 52.4919 19.5967 52.4919 19.3705H51.7736ZM51.7404 19.4688C51.7222 19.487 51.6994 19.5019 51.6425 19.5019V20.2219C51.8705 20.2219 52.0822 20.1444 52.2484 19.9778L51.7404 19.4688ZM51.6425 19.5019H50.222V20.2219H51.6425V19.5019ZM49.8629 19.8619V23.6671H50.5812V19.8619H49.8629ZM49.8629 23.6671C49.8629 24.0159 49.9376 24.4062 50.2609 24.6043L50.6355 23.9899C50.6464 23.9966 50.6339 23.9967 50.6165 23.9484C50.5977 23.8962 50.5812 23.807 50.5812 23.6671H49.8629ZM50.2809 24.6157C50.505 24.7339 50.7633 24.7831 51.0391 24.7831V24.0631C50.8455 24.0631 50.7099 24.0283 50.6155 23.9785L50.2809 24.6157ZM51.0391 24.7831C51.2431 24.7831 51.4454 24.7524 51.6451 24.6924L51.4386 24.0027C51.3031 24.0434 51.1702 24.0631 51.0391 24.0631V24.7831ZM51.629 24.6967C51.6625 24.6883 51.696 24.6799 51.7295 24.6715L51.5554 23.9731C51.5218 23.9815 51.4883 23.9899 51.4548 23.9983L51.629 24.6967ZM51.7129 24.6753C51.7249 24.6729 51.7503 24.6697 51.7934 24.6697V23.9497C51.719 23.9497 51.6438 23.9548 51.572 23.9692L51.7129 24.6753ZM51.7934 24.6697C51.8044 24.6697 51.8205 24.6697 51.8536 24.7028L52.3616 24.1938C52.2102 24.0421 52.0169 23.9497 51.7934 23.9497V24.6697ZM51.866 24.7147C51.8782 24.7258 51.8815 24.7326 51.8826 24.7351C51.8836 24.7375 51.8867 24.7453 51.8867 24.7633H52.6051C52.6051 24.537 52.5169 24.3349 52.3492 24.1819L51.866 24.7147ZM51.8867 24.7633C51.8867 24.7968 51.8793 24.8116 51.8734 24.8208C51.866 24.832 51.8456 24.8564 51.7906 24.8851L52.1228 25.5235C52.2607 25.4514 52.3848 25.3518 52.4737 25.2162C52.5641 25.0782 52.6051 24.923 52.6051 24.7633H51.8867ZM51.8062 24.8774C51.5277 25.0063 51.2314 25.0711 50.9134 25.0711V25.7911C51.3328 25.7911 51.7321 25.7047 52.1073 25.5312L51.8062 24.8774ZM54.5086 24.5617L54.251 24.8125L54.2528 24.8144L54.2546 24.8162L54.5086 24.5617ZM54.9863 19.2193L55.1892 19.5163L54.9863 19.2193ZM58.2673 19.1941L58.0719 19.4962L58.0738 19.4974L58.0758 19.4988L58.2673 19.1941ZM59.298 20.3533L58.9746 20.5098L58.975 20.511L58.9756 20.512L59.298 20.3533ZM59.4866 22.3315L59.2326 22.077L59.2275 22.082L59.2226 22.0873L59.4866 22.3315ZM54.8103 22.4953V22.1353H54.4077L54.4534 22.5362L54.8103 22.4953ZM55.464 23.8687L55.2257 24.1381L55.464 23.8687ZM57.9278 24.2593L57.8407 23.9101L57.8394 23.9103L57.8381 23.9107L57.9278 24.2593ZM58.7072 23.9695L58.5466 23.6475L58.7072 23.9695ZM59.2855 24.0577L59.5282 23.7924L59.2855 24.0577ZM59.1095 24.8767L59.2858 25.1902L59.2874 25.1894L59.2889 25.1886L59.1095 24.8767ZM58.1415 25.2925L58.2414 25.6383L58.1415 25.2925ZM58.5187 21.5629V21.9229H58.9005L58.8771 21.5409L58.5187 21.5629ZM58.1918 20.5297L57.8929 20.7294L57.895 20.7325L57.8971 20.7355L58.1918 20.5297ZM57.5004 19.9249L57.3437 20.2488L57.3477 20.2508L57.3517 20.2526L57.5004 19.9249ZM55.816 19.9249L55.9645 20.2526L55.9686 20.2508L55.9726 20.2488L55.816 19.9249ZM55.1246 20.5297L55.4234 20.7294L55.1246 20.5297ZM54.8103 21.5629L54.4518 21.5409L54.4284 21.9229H54.8103V21.5629ZM56.9096 25.0711C55.9572 25.0711 55.2575 24.8032 54.7626 24.3072L54.2546 24.8162C54.9162 25.4793 55.817 25.7911 56.9096 25.7911V25.0711ZM54.7661 24.3109C54.2788 23.808 54.013 23.0852 54.013 22.0921H53.2947C53.2947 23.2158 53.5986 24.1394 54.251 24.8125L54.7661 24.3109ZM54.013 22.0921C54.013 21.5407 54.1134 21.0397 54.3101 20.5846L53.6511 20.2983C53.412 20.8513 53.2947 21.4507 53.2947 22.0921H54.013ZM54.3101 20.5846C54.5011 20.1429 54.7925 19.7888 55.1892 19.5163L54.7833 18.9223C54.2749 19.2714 53.8959 19.732 53.6511 20.2983L54.3101 20.5846ZM55.1892 19.5163C55.5705 19.2543 56.0534 19.1131 56.6582 19.1131V18.3931C55.9388 18.3931 55.307 18.5626 54.7833 18.9223L55.1892 19.5163ZM56.6582 19.1131C57.2196 19.1131 57.6858 19.2454 58.0719 19.4962L58.4625 18.892C57.9435 18.5547 57.337 18.3931 56.6582 18.3931V19.1131ZM58.0758 19.4988C58.4708 19.748 58.7689 20.0828 58.9746 20.5098L59.6214 20.1968C59.3578 19.6494 58.9687 19.2114 58.4586 18.8894L58.0758 19.4988ZM58.9756 20.512C59.1844 20.9379 59.2909 21.4081 59.2909 21.9283H60.0092C60.0092 21.3061 59.881 20.7262 59.6203 20.1945L58.9756 20.512ZM59.2909 21.9283C59.2909 21.996 59.2717 22.0377 59.2326 22.077L59.7405 22.586C59.9193 22.4068 60.0092 22.1798 60.0092 21.9283H59.2909ZM59.2226 22.0873C59.2028 22.1089 59.1679 22.1353 59.0718 22.1353V22.8553C59.3275 22.8553 59.5692 22.7725 59.7505 22.5757L59.2226 22.0873ZM59.0718 22.1353H54.8103V22.8553H59.0718V22.1353ZM54.4534 22.5362C54.5284 23.1939 54.778 23.7404 55.2257 24.1381L55.7021 23.5993C55.4124 23.3419 55.2262 22.9726 55.1671 22.4544L54.4534 22.5362ZM55.2257 24.1381C55.6798 24.5416 56.2908 24.7201 57.0102 24.7201V24.0001C56.4054 24.0001 55.9855 23.851 55.7021 23.5993L55.2257 24.1381ZM57.0102 24.7201C57.3836 24.7201 57.721 24.6846 58.0175 24.6079L57.8381 23.9107C57.615 23.9684 57.3406 24.0001 57.0102 24.0001V24.7201ZM58.0149 24.6085C58.3089 24.5348 58.5934 24.4291 58.8678 24.2914L58.5466 23.6475C58.3181 23.762 58.083 23.8494 57.8407 23.9101L58.0149 24.6085ZM58.8678 24.2914C58.8794 24.2857 58.8988 24.2791 58.9335 24.2791V23.5591C58.8005 23.5591 58.669 23.5861 58.5466 23.6475L58.8678 24.2914ZM58.9335 24.2791C58.976 24.2791 59.0071 24.2904 59.0427 24.3231L59.5282 23.7924C59.3626 23.6402 59.159 23.5591 58.9335 23.5591V24.2791ZM59.0427 24.3231C59.0654 24.3439 59.0772 24.3636 59.0772 24.4105H59.7955C59.7955 24.1718 59.7065 23.9563 59.5282 23.7924L59.0427 24.3231ZM59.0772 24.4105C59.0772 24.4213 59.0824 24.4767 58.9299 24.5648L59.2889 25.1886C59.5722 25.0246 59.7955 24.7693 59.7955 24.4105H59.0772ZM58.933 24.5631C58.6273 24.736 58.3301 24.863 58.0416 24.9466L58.2414 25.6383C58.5898 25.5372 58.9379 25.3869 59.2858 25.1902L58.933 24.5631ZM58.0416 24.9466C57.7678 25.0262 57.3941 25.0711 56.9096 25.0711V25.7911C57.4306 25.7911 57.8783 25.7437 58.2414 25.6383L58.0416 24.9466ZM58.8771 21.5409C58.8489 21.0778 58.7245 20.6661 58.4865 20.3239L57.8971 20.7355C58.0446 20.9476 58.1381 21.2247 58.1601 21.5848L58.8771 21.5409ZM58.4907 20.33C58.2726 20.0024 57.9923 19.7535 57.649 19.5972L57.3517 20.2526C57.5616 20.3482 57.7422 20.5027 57.8929 20.7294L58.4907 20.33ZM57.657 19.601C57.3356 19.4448 57.0016 19.3633 56.6582 19.3633V20.0833C56.8846 20.0833 57.1121 20.1362 57.3437 20.2488L57.657 19.601ZM56.6582 19.3633C56.3147 19.3633 55.9807 19.4448 55.6593 19.601L55.9726 20.2488C56.2042 20.1362 56.4317 20.0833 56.6582 20.0833V19.3633ZM55.6673 19.5972C55.324 19.7535 55.0437 20.0024 54.8256 20.33L55.4234 20.7294C55.5741 20.5027 55.7547 20.3482 55.9645 20.2526L55.6673 19.5972ZM54.8256 20.33C54.5986 20.6713 54.4799 21.0808 54.4518 21.5409L55.1688 21.5848C55.1909 21.2218 55.2817 20.9425 55.4234 20.7294L54.8256 20.33ZM54.8103 21.9229H58.5187V21.2029H54.8103V21.9229Z" fill="white"/>
</g>
<defs>
<clipPath id="clip0_31_191">
<rect width="92.9032" height="30" fill="white"/>
</clipPath>
</defs>
</svg>
