<svg  viewBox="0 0 26 26" fill="none" xmlns="http://www.w3.org/2000/svg">
<path d="M7.428 1.49711C7.3169 0.534783 8.50215 -0.0075008 9.15767 0.705738L14.1932 6.1846C14.4864 6.50357 14.9516 6.59749 15.3455 6.41725L22.1123 3.32123C22.9932 2.91819 23.8752 3.87785 23.3994 4.7217L19.7448 11.2038C19.532 11.5812 19.5865 12.0527 19.8796 12.3716L24.9152 17.8505C25.5707 18.5637 24.9305 19.6991 23.981 19.5074L16.6868 18.0347C16.2621 17.949 15.8305 18.1465 15.6178 18.5238L11.9631 25.006C11.4874 25.8498 10.2097 25.5919 10.0986 24.6295L9.24519 17.2372C9.1955 16.8069 8.87435 16.4574 8.44969 16.3717L1.15547 14.899C0.205902 14.7073 0.0564192 13.4125 0.937319 13.0095L7.70409 9.91345C8.09804 9.7332 8.33112 9.31979 8.28144 8.88942L7.428 1.49711Z" fill="url(#paint0_linear_31_207)"/>
<defs>
<linearGradient id="paint0_linear_31_207" x1="3.66282" y1="8.8541" x2="22.2368" y2="29.4918" gradientUnits="userSpaceOnUse">
<stop stop-color="#5ED29E"/>
<stop offset="1" stop-color="#222222"/>
</linearGradient>
</defs>
</svg>
